<svg width="20" height="20" viewBox="0 0 20 20" fill="none" xmlns="http://www.w3.org/2000/svg">
<circle cx="10" cy="10" r="10" fill="#D9D9D9"/>
<path d="M9.5 4.5L8.79289 3.79289L9.5 3.08579L10.2071 3.79289L9.5 4.5ZM10.5 13.875C10.5 14.4273 10.0523 14.875 9.5 14.875C8.94772 14.875 8.5 14.4273 8.5 13.875L10.5 13.875ZM5.04289 7.54289L8.79289 3.79289L10.2071 5.20711L6.45711 8.95711L5.04289 7.54289ZM10.2071 3.79289L13.9571 7.54289L12.5429 8.95711L8.79289 5.20711L10.2071 3.79289ZM10.5 4.5L10.5 13.875L8.5 13.875L8.5 4.5L10.5 4.5Z" fill="#340068"/>
</svg>
