<svg width="97" height="90" viewBox="0 0 97 90" fill="none" xmlns="http://www.w3.org/2000/svg">
<path d="M52.9221 11.25H36.1613C28.5851 11.25 24.7971 11.25 22.4435 13.4467C20.0898 15.6434 20.0898 19.1789 20.0898 26.25V63.75C20.0898 70.8211 20.0898 74.3566 22.4435 76.5533C24.7971 78.75 28.5851 78.75 36.1613 78.75H60.2684C67.8446 78.75 71.6326 78.75 73.9862 76.5533C76.3398 74.3566 76.3398 70.8211 76.3398 63.75V33.1066C76.3398 31.5738 76.3398 30.8074 76.034 30.1182C75.7282 29.4291 75.1475 28.8872 73.9862 27.8033L58.6042 13.4467C57.4429 12.3628 56.8622 11.8209 56.1239 11.5355C55.3855 11.25 54.5644 11.25 52.9221 11.25Z" stroke="#33363F" stroke-width="2"/>
<path d="M36.1602 48.75L60.2673 48.75" stroke="#33363F" stroke-width="2" stroke-linecap="round"/>
<path d="M36.1602 63.75L52.2316 63.75" stroke="#33363F" stroke-width="2" stroke-linecap="round"/>
<path d="M52.2324 11.25V26.25C52.2324 29.7855 52.2324 31.5533 53.4092 32.6517C54.586 33.75 56.4801 33.75 60.2681 33.75H76.3396" stroke="#33363F" stroke-width="2"/>
</svg>
