<svg width="500" height="400" viewBox="0 0 500 400" fill="none" xmlns="http://www.w3.org/2000/svg">
<path d="M277.303 38.749C335.828 46.605 349.888 81.939 376.678 87.454C416.742 95.702 459.556 101.987 450.129 151.478C440.702 200.969 416.742 213.538 425.384 255.959C434.025 298.38 451.281 323.538 421.063 345.907C390.818 368.296 355.468 343.157 304.013 353.763C252.558 364.368 192.462 380.473 97.408 348.657C2.35397 316.841 67.949 268.921 64.021 231.607C60.093 194.292 24.841 181.494 45.298 137.993C90.102 42.72 236.397 33.259 277.303 38.749Z" fill="#F2F1F7"/>
<path d="M213.582 363.585C178.838 363.586 143.538 357.431 105.88 344.827C78.8859 335.792 62.742 324.772 56.525 311.138C49.32 295.337 56.3239 278.405 63.0969 262.031C68.2219 249.64 73.0629 237.937 71.9179 227.059C70.4359 212.973 64.4449 202.446 58.6529 192.265C49.2899 175.81 40.4459 160.267 53.2719 132.994C63.7179 110.781 80.4349 91.667 102.96 76.183C121.906 63.159 144.889 52.711 171.271 45.13C218.75 31.486 265.991 30.562 286.16 33.269C322.114 38.095 341.485 53.298 357.05 65.513C366.87 73.22 375.352 79.876 385.593 81.985C387.385 82.354 389.184 82.719 390.983 83.085C429.274 90.86 468.869 98.901 459.708 147.001C455.897 167.011 449.726 181.001 444.282 193.345C436.219 211.627 429.85 226.068 434.96 251.153C436.874 260.548 439.26 269.271 441.365 276.968C448.866 304.392 454.286 324.207 430.312 341.954C413.268 354.571 394.514 352.321 372.796 349.714C355.412 347.627 335.71 345.263 312.927 349.958C309.718 350.62 306.475 351.302 303.192 351.994C278.964 357.096 251.502 362.879 219.515 363.524C217.539 363.565 215.561 363.585 213.582 363.585ZM263.722 33.745C239.938 33.745 205.917 36.944 171.74 46.765C131.631 58.29 78.7869 82.731 54.8099 133.718C42.3589 160.193 50.5949 174.667 60.1299 191.425C66.0089 201.758 72.0889 212.443 73.6089 226.881C74.7989 238.188 69.8779 250.085 64.6679 262.681C58.0339 278.719 51.174 295.304 58.073 310.433C64.083 323.614 79.8979 334.337 106.421 343.214C195.325 372.972 252.446 360.944 302.842 350.331C306.127 349.639 309.372 348.956 312.584 348.294C335.637 343.542 355.487 345.924 372.998 348.027C394.352 350.59 412.798 352.803 429.3 340.588C452.339 323.532 447.321 305.187 439.725 277.416C437.613 269.694 435.219 260.941 433.294 251.492C428.076 225.876 434.541 211.217 442.726 192.658C448.133 180.398 454.262 166.501 458.037 146.682C462.059 125.564 457.011 111.139 442.15 101.283C428.948 92.527 409.475 88.574 390.644 84.75C388.844 84.385 387.043 84.019 385.249 83.649C374.617 81.46 365.99 74.689 356 66.85C340.598 54.762 321.428 39.718 285.934 34.954C280.398 34.212 272.805 33.745 263.722 33.745Z" fill="#F2F1F7"/>
<path d="M295.462 234.693L294.726 234.509C309.188 176.426 322.699 142.531 339.905 121.175L340.496 121.651C323.364 142.917 309.896 176.723 295.462 234.693Z" fill="#58857A"/>
<path d="M332.007 132.505C332.778 126.49 337.792 112.628 344.941 113.591C352.09 114.553 343.986 124.675 338.217 128.556C334.352 131.156 332.007 132.505 332.007 132.505Z" fill="#58857A"/>
<path d="M325.589 143.673C328.542 138.272 334.354 133.221 341.679 132.982C345.984 132.842 347.466 141.187 337.298 141.142C329.815 141.11 325.589 143.673 325.589 143.673Z" fill="#58857A"/>
<path d="M325.921 143.139C328.774 131.007 325.308 122.031 319.978 123.083C314.648 124.136 317.729 131.798 321.074 134.759C324.418 137.719 325.921 143.139 325.921 143.139Z" fill="#58857A"/>
<path d="M319.45 156.565C325.969 147.171 333.801 146.086 337.342 148.2C340.882 150.315 340.053 157.071 332.642 155.784C324.786 154.42 319.45 156.565 319.45 156.565Z" fill="#58857A"/>
<path d="M313.55 171.516C326.222 158.989 337.053 164.116 336.162 168.12C335.272 172.124 329.03 170.985 323.826 170.375C318.623 169.766 313.55 171.516 313.55 171.516Z" fill="#58857A"/>
<path d="M308.403 186.662C321.739 173.066 333.803 175.655 334.824 180.617C335.845 185.58 331.83 186.543 322.192 184.207C312.446 181.846 308.403 186.662 308.403 186.662Z" fill="#58857A"/>
<path d="M319.607 156.25C322.076 138.872 311.237 134.31 307.497 139.052C303.757 143.794 314.068 147.003 316.153 150.803C318.237 154.603 319.607 156.25 319.607 156.25Z" fill="#58857A"/>
<path d="M313.998 170.427C314.298 161.5 309.831 150.526 303.572 150.515C297.313 150.504 297.995 157.27 302.739 159.567C309.835 163.002 313.998 170.427 313.998 170.427Z" fill="#58857A"/>
<path d="M303.281 204.216C308.201 196.105 323.746 190.146 329.869 195.883C335.992 201.619 326.841 205.168 319.252 203.078C311.664 200.989 303.281 204.216 303.281 204.216Z" fill="#58857A"/>
<path d="M297.702 224.221C305.799 210.868 322.631 210.301 329.105 216.939C335.58 223.577 323.901 225.936 314.131 222.038C304.362 218.139 297.702 224.221 297.702 224.221Z" fill="#58857A"/>
<path d="M308.688 184.674C305.468 165.816 294.054 164.201 291.196 168.806C288.337 173.412 308.688 184.674 308.688 184.674Z" fill="#58857A"/>
<path d="M302.758 203.958C303.716 189.833 291.913 179.564 285.735 183.538C279.557 187.512 292 192.418 295.387 195.416C298.775 198.414 302.758 203.958 302.758 203.958Z" fill="#58857A"/>
<path d="M297.647 224.187C293.979 209.722 280.07 195.183 275.073 202.128C270.653 208.271 277.735 210.925 289.264 214.504C295.632 216.481 297.647 224.187 297.647 224.187Z" fill="#58857A"/>
<path d="M297.856 237.261L297.178 236.924C312.78 205.574 326.127 184.317 339.183 170.027C351.435 156.618 364.121 148.44 380.319 143.511L380.539 144.236C348.479 153.992 327.615 177.466 297.856 237.261Z" fill="#76A699"/>
<path d="M367.763 148.62C376.525 137.806 386.251 137.198 386.889 142.643C387.782 150.259 367.763 148.62 367.763 148.62Z" fill="#76A699"/>
<path d="M356.88 154.776C371.431 153.478 378.735 157.251 378.482 161.575C378.229 165.899 374.42 166.041 366.778 161.222C359.135 156.404 356.88 154.776 356.88 154.776Z" fill="#76A699"/>
<path d="M358.177 153.91C363.338 146.329 363.802 135.301 355.998 135.394C348.194 135.487 356.98 145.224 357.831 148.227C358.64 151.084 358.177 153.91 358.177 153.91Z" fill="#76A699"/>
<path d="M343.687 165.878C357.249 158.954 371.472 164.059 369.055 171.748C366.638 179.437 360.062 169.964 354.632 168.189C349.201 166.415 343.687 165.878 343.687 165.878Z" fill="#76A699"/>
<path d="M338.647 144.752C345.378 142.29 352.167 154.661 344.362 165.158C344.362 165.158 345.08 158.617 338.593 153.528C332.106 148.439 335.798 145.794 338.647 144.752Z" fill="#76A699"/>
<path d="M328.115 184.238C335.811 173.673 349.672 174.833 354.56 180.296C359.447 185.759 354.37 189.291 350.333 189.065C346.297 188.838 343.013 184.218 337.04 183.929C331.068 183.641 328.115 184.238 328.115 184.238Z" fill="#76A699"/>
<path d="M331.363 179.495C335.688 167.142 331.21 157.224 323.145 159.206C315.08 161.188 327.222 167.811 329.041 171.978C330.86 176.145 331.363 179.495 331.363 179.495Z" fill="#76A699"/>
<path d="M317.747 199.6C338.75 188.028 348.712 197.552 346.104 203.224C343.495 208.896 333.502 202.009 329.501 200.363C324.418 198.272 317.747 199.6 317.747 199.6Z" fill="#76A699"/>
<path d="M307.273 218.313C335.361 197.355 354.782 227.098 325.048 219.775C314.903 217.276 307.273 218.313 307.273 218.313Z" fill="#76A699"/>
<path d="M310.278 212.736C310.606 199.725 298.2 187.165 292.82 194.611C287.44 202.056 303.771 205.356 306.38 208.494C308.989 211.632 310.278 212.736 310.278 212.736Z" fill="#76A699"/>
<path d="M317.747 199.6C321.7 195.066 321.627 176.338 311.497 174.305C301.367 172.271 307.592 185.248 311.574 189.845C315.555 194.442 317.747 199.6 317.747 199.6Z" fill="#76A699"/>
<path d="M300.057 232.631C316.166 221.5 326.889 240.816 308.4 233.138C303.962 231.296 300.057 232.631 300.057 232.631Z" fill="#76A699"/>
<path d="M301.779 228.573C303.596 219.22 295.987 210.739 290.801 215.608C285.615 220.477 299.896 223.531 301.002 226.154C302.108 228.777 301.779 228.573 301.779 228.573Z" fill="#76A699"/>
<path d="M293.63 233.719L292.874 233.654C294.539 214.439 289.218 172.56 257.16 151.586L257.575 150.951C289.933 172.121 295.308 214.348 293.63 233.719Z" fill="#9FC7BD"/>
<path d="M313.799 238.536L313.394 237.895C337.424 222.707 369.026 227.289 369.342 227.338L369.228 228.087C368.915 228.042 337.584 223.503 313.799 238.536Z" fill="#58857A"/>
<path d="M354.312 226.985C364.028 222.367 369.888 221.679 373.295 226.818C376.702 231.956 368.479 232.671 362.998 230.571C357.517 228.47 354.312 226.985 354.312 226.985Z" fill="#58857A"/>
<path d="M338.284 228.661C353.854 229.602 362.926 237.084 360.672 244.335C358.418 251.586 352.085 238.316 348.019 234.486C343.953 230.656 338.284 228.661 338.284 228.661Z" fill="#58857A"/>
<path d="M324.531 232.555C336.581 232.929 347.401 242.659 347.449 248.083C347.497 253.507 337.104 253.795 332.369 244.937C327.633 236.079 324.531 232.555 324.531 232.555Z" fill="#58857A"/>
<path d="M339.672 228.515C350.014 225.496 348.789 215.245 344.374 211.098C339.953 206.945 336.337 209.438 338.064 215.306C339.164 219.045 342.778 221.219 341.264 225.382C340.446 227.633 339.672 228.515 339.672 228.515Z" fill="#58857A"/>
<path d="M324.65 232.636C330.527 229.294 333.62 213.56 324.614 209.373C316.383 205.546 313.794 212.87 320.946 220.204C325.649 225.027 324.65 232.636 324.65 232.636Z" fill="#58857A"/>
<path d="M264.073 156.493C261.706 151.986 251.825 142.209 251.145 147.711C250.465 153.212 264.073 156.493 264.073 156.493Z" fill="#9FC7BD"/>
<path d="M274.215 166.584C270.275 162.164 266.398 147.607 274.667 149.702C282.937 151.796 274.215 166.584 274.215 166.584Z" fill="#9FC7BD"/>
<path d="M274.215 166.584C263.981 163.005 252.745 159.45 254.552 166.267C256.359 173.084 274.215 166.584 274.215 166.584Z" fill="#9FC7BD"/>
<path d="M282.12 178.933C280.057 165.92 287.266 157.976 293.127 162.297C298.99 166.619 282.12 178.933 282.12 178.933Z" fill="#9FC7BD"/>
<path d="M284.259 183.564C278.332 178.063 264.368 171.561 262.083 178.915C259.797 186.268 284.259 183.564 284.259 183.564Z" fill="#9FC7BD"/>
<path d="M287.807 192.714C292.959 180.191 298.559 173.186 303.241 177.573C307.923 181.96 287.807 192.714 287.807 192.714Z" fill="#9FC7BD"/>
<path d="M288.326 194.632C279.651 189.704 264.615 184.93 264.207 192.195C263.799 199.46 288.326 194.632 288.326 194.632Z" fill="#9FC7BD"/>
<path d="M291.897 207.784C293.788 195.743 305.539 187.087 308.885 194.177C312.232 201.266 291.897 207.784 291.897 207.784Z" fill="#9FC7BD"/>
<path d="M291.696 209.026C281.033 204.915 263.621 198.096 265.178 207.15C266.736 216.205 291.696 209.026 291.696 209.026Z" fill="#9FC7BD"/>
<path d="M292.965 216.648C296.972 209.946 312.161 204.562 314.566 212.434C316.971 220.307 292.965 216.648 292.965 216.648Z" fill="#9FC7BD"/>
<path d="M293.24 223.426C291.788 220.626 275.226 211.335 273.379 217.86C271.533 224.384 293.24 223.426 293.24 223.426Z" fill="#9FC7BD"/>
<path d="M205.18 251.896C199.401 192.437 191.034 157.021 177.204 133.474L177.858 133.09C191.747 156.738 200.144 192.246 205.935 251.823L205.18 251.896Z" fill="#58857A"/>
<path d="M184.01 145.454C184.129 139.391 181.201 124.944 173.988 124.848C166.775 124.752 173.308 135.952 178.446 140.637C181.888 143.776 184.01 145.454 184.01 145.454Z" fill="#58857A"/>
<path d="M188.722 157.443C186.592 151.667 181.584 145.819 174.373 144.509C170.135 143.739 167.446 151.777 177.51 153.223C184.917 154.288 188.722 157.443 188.722 157.443Z" fill="#58857A"/>
<path d="M188.472 156.865C187.428 144.445 192.173 136.074 197.291 137.897C202.409 139.72 198.238 146.848 194.496 149.286C190.753 151.725 188.472 156.865 188.472 156.865Z" fill="#58857A"/>
<path d="M192.905 171.095C187.834 160.846 180.245 158.625 176.433 160.198C172.621 161.771 172.451 168.576 179.971 168.389C187.941 168.191 192.905 171.095 192.905 171.095Z" fill="#58857A"/>
<path d="M196.549 186.749C185.85 172.5 174.385 175.983 174.679 180.075C174.973 184.166 181.314 183.954 186.551 184.114C191.787 184.275 196.549 186.749 196.549 186.749Z" fill="#58857A"/>
<path d="M199.42 202.487C188.221 187.083 175.908 187.875 174.171 192.634C172.433 197.393 176.264 198.935 186.141 198.037C196.127 197.129 199.42 202.487 199.42 202.487Z" fill="#58857A"/>
<path d="M192.796 170.761C192.901 153.209 204.292 150.285 207.296 155.524C210.301 160.763 199.63 162.426 197.011 165.879C194.393 169.332 192.796 170.761 192.796 170.761Z" fill="#58857A"/>
<path d="M196.266 185.607C197.278 176.732 203.305 166.531 209.498 167.438C215.691 168.345 214.024 174.938 208.995 176.514C201.473 178.872 196.266 185.607 196.266 185.607Z" fill="#58857A"/>
<path d="M201.914 220.602C198.237 211.858 183.733 203.684 176.835 208.461C169.937 213.238 178.469 218.089 186.282 217.135C194.095 216.18 201.914 220.602 201.914 220.602Z" fill="#58857A"/>
<path d="M204.501 241.208C198.449 226.812 181.882 223.784 174.504 229.401C167.126 235.018 178.333 239.064 188.568 236.64C198.804 234.216 204.501 241.208 204.501 241.208Z" fill="#58857A"/>
<path d="M199.43 200.479C205.379 182.297 216.907 182.372 219.06 187.347C221.212 192.321 199.43 200.479 199.43 200.479Z" fill="#58857A"/>
<path d="M202.469 220.423C203.592 206.31 216.773 197.882 222.301 202.719C227.83 207.556 214.802 210.585 211.012 213.054C207.222 215.523 202.469 220.423 202.469 220.423Z" fill="#58857A"/>
<path d="M204.56 241.182C210.309 227.411 226.199 215.068 230.123 222.67C233.594 229.394 226.2 230.981 214.271 232.832C207.682 233.855 204.56 241.182 204.56 241.182Z" fill="#58857A"/>
<path d="M202.436 254.085C181.765 190.573 164.568 164.295 134.283 149.944L134.607 149.259C149.908 156.509 161.258 166.458 171.412 181.518C182.233 197.568 192.32 220.552 203.157 253.85L202.436 254.085Z" fill="#76A699"/>
<path d="M146.278 156.153C139.196 144.171 129.664 142.144 128.235 147.436C126.235 154.841 146.278 156.153 146.278 156.153Z" fill="#76A699"/>
<path d="M156.142 163.839C141.938 160.422 134.161 163.084 133.777 167.398C133.393 171.712 137.141 172.411 145.407 168.765C153.673 165.119 156.142 163.839 156.142 163.839Z" fill="#76A699"/>
<path d="M154.986 162.792C150.993 154.536 152.15 143.56 159.856 144.796C167.562 146.032 157.444 154.375 156.162 157.222C154.942 159.928 154.986 162.792 154.986 162.792Z" fill="#76A699"/>
<path d="M167.565 176.755C155.164 167.918 140.347 170.883 141.611 178.843C142.875 186.803 150.769 178.397 156.4 177.437C162.031 176.477 167.565 176.755 167.565 176.755Z" fill="#76A699"/>
<path d="M175.647 156.595C169.349 153.173 160.821 164.415 167.003 175.943C167.003 175.943 167.252 169.367 174.414 165.284C181.577 161.201 178.313 158.044 175.647 156.595Z" fill="#76A699"/>
<path d="M180.277 197.199C174.213 185.62 160.331 184.735 154.696 189.423C149.061 194.111 153.566 198.349 157.592 198.717C161.618 199.085 165.544 194.996 171.494 195.585C177.443 196.175 180.277 197.199 180.277 197.199Z" fill="#76A699"/>
<path d="M177.759 192.031C175.292 179.177 181.175 170.023 188.862 173.166C196.549 176.309 183.568 181.081 181.158 184.936C178.748 188.791 177.759 192.031 177.759 192.031Z" fill="#76A699"/>
<path d="M188.281 213.915C169.201 199.39 157.951 207.35 159.7 213.343C161.449 219.336 172.343 213.988 176.543 212.947C181.876 211.623 188.281 213.915 188.281 213.915Z" fill="#76A699"/>
<path d="M195.899 233.961C171.186 209.112 147.615 235.687 178.102 232.801C188.503 231.817 195.899 233.961 195.899 233.961Z" fill="#76A699"/>
<path d="M193.743 228.003C195.326 215.085 209.44 204.479 213.67 212.633C217.9 220.787 201.262 221.657 198.221 224.378C195.181 227.1 193.743 228.003 193.743 228.003Z" fill="#76A699"/>
<path d="M188.281 213.915C185.036 208.851 187.853 190.336 198.172 189.81C208.49 189.283 200.431 201.207 195.818 205.171C191.205 209.134 188.281 213.915 188.281 213.915Z" fill="#76A699"/>
<path d="M200.937 249.183C186.634 235.81 173.195 253.346 192.61 248.462C197.27 247.289 200.937 249.183 200.937 249.183Z" fill="#76A699"/>
<path d="M199.83 244.916C199.404 235.398 208.174 228.124 212.59 233.701C217.006 239.278 202.432 240.205 200.953 242.637C199.474 245.07 199.83 244.916 199.83 244.916Z" fill="#76A699"/>
<path d="M207.894 251.247L207.137 251.2C208.315 231.793 219.822 190.81 254.935 174.612L255.253 175.3C220.465 191.349 209.063 231.996 207.894 251.247Z" fill="#9FC7BD"/>
<path d="M200.013 254.442C178.772 236.156 147.278 235.981 146.719 235.981C146.713 235.981 146.711 235.223 146.711 235.223C146.977 235.222 178.949 235.309 200.507 253.868L200.013 254.442Z" fill="#58857A"/>
<path d="M161.63 237.076C152.696 231.083 147 229.545 142.877 234.128C138.754 238.711 146.783 240.624 152.512 239.35C158.242 238.075 161.63 237.076 161.63 237.076Z" fill="#58857A"/>
<path d="M177.239 241.084C161.699 239.732 151.628 245.804 152.795 253.307C153.962 260.81 162.172 248.612 166.755 245.419C171.338 242.227 177.239 241.084 177.239 241.084Z" fill="#58857A"/>
<path d="M190.273 246.952C178.298 245.556 166.169 253.595 165.327 258.953C164.485 264.311 174.723 266.12 180.705 258.052C186.687 249.983 190.273 246.952 190.273 246.952Z" fill="#58857A"/>
<path d="M175.887 240.736C166.099 236.234 168.813 226.273 173.789 222.818C178.771 219.358 181.982 222.354 179.415 227.906C177.779 231.444 173.885 233.065 174.772 237.404C175.251 239.75 175.887 240.736 175.887 240.736Z" fill="#58857A"/>
<path d="M190.143 247.015C184.82 242.848 184.067 226.83 193.589 224.009C202.292 221.43 203.779 229.055 195.63 235.261C190.27 239.342 190.143 247.015 190.143 247.015Z" fill="#58857A"/>
<path d="M247.694 179.142C250.696 175.031 261.903 166.808 261.77 172.35C261.636 177.891 247.694 179.142 247.694 179.142Z" fill="#9FC7BD"/>
<path d="M236.183 187.637C240.729 183.843 246.697 170.011 238.21 170.871C229.723 171.731 236.183 187.637 236.183 187.637Z" fill="#9FC7BD"/>
<path d="M236.183 187.637C246.831 185.597 258.466 183.727 255.68 190.206C252.893 196.685 236.183 187.637 236.183 187.637Z" fill="#9FC7BD"/>
<path d="M226.553 198.693C230.501 186.123 224.535 177.208 218.103 180.623C211.671 184.039 226.553 198.693 226.553 198.693Z" fill="#9FC7BD"/>
<path d="M223.758 202.961C230.428 198.388 245.194 194.004 246.376 201.613C247.559 209.222 223.758 202.961 223.758 202.961Z" fill="#9FC7BD"/>
<path d="M218.907 211.493C215.647 198.35 211.134 190.6 205.859 194.253C200.584 197.905 218.907 211.493 218.907 211.493Z" fill="#9FC7BD"/>
<path d="M218.113 213.313C227.417 209.71 242.99 207.191 242.328 214.438C241.666 221.684 218.113 213.313 218.113 213.313Z" fill="#9FC7BD"/>
<path d="M212.652 225.799C212.547 213.611 202.192 203.326 197.842 209.848C193.492 216.371 212.652 225.799 212.652 225.799Z" fill="#9FC7BD"/>
<path d="M212.669 227.058C223.819 224.554 242.043 220.362 239.175 229.09C236.307 237.818 212.669 227.058 212.669 227.058Z" fill="#9FC7BD"/>
<path d="M210.296 234.412C207.314 227.195 193.079 219.643 189.546 227.077C186.013 234.512 210.296 234.412 210.296 234.412Z" fill="#9FC7BD"/>
<path d="M209.031 241.076C210.878 238.519 228.623 231.757 229.493 238.481C230.363 245.206 209.031 241.076 209.031 241.076Z" fill="#9FC7BD"/>
<path d="M301.72 188.305C180.486 188.305 181.951 190.312 181.951 183.395C181.951 96.172 180.099 95.539 186.861 95.539C308.095 95.539 306.63 93.532 306.63 100.449V183.395C306.63 186.107 304.431 188.305 301.72 188.305Z" fill="white"/>
<path d="M211.648 189.142C189.815 189.142 184.124 188.723 182.244 186.848C181.377 185.984 181.38 184.897 181.383 183.639L181.384 183.396C181.384 164.675 181.299 150.078 181.231 138.349C181.043 105.964 180.999 98.27 183.336 95.919C184.276 94.973 185.531 94.973 186.86 94.973C214.199 94.973 234.926 94.873 251.581 94.792C294.866 94.583 303.873 94.539 306.335 96.996C307.202 97.861 307.199 98.947 307.196 100.205V100.448V183.394C307.196 186.414 304.739 188.87 301.72 188.87C274.379 188.87 253.65 188.97 236.994 189.051C226.747 189.102 218.421 189.142 211.648 189.142ZM276.84 95.835C270.054 95.835 261.745 95.875 251.587 95.924C234.931 96.005 214.202 96.105 186.861 96.105C185.551 96.105 184.719 96.135 184.141 96.716C182.136 98.732 182.19 107.915 182.366 138.341C182.434 150.071 182.519 164.669 182.519 183.394L182.518 183.64C182.515 184.871 182.537 185.537 183.046 186.044C185.175 188.168 196.149 188.115 236.99 187.917C253.647 187.836 274.377 187.736 301.721 187.736C304.116 187.736 306.064 185.788 306.064 183.393V100.201C306.067 98.97 306.045 98.304 305.536 97.796C303.936 96.202 297.34 95.835 276.84 95.835Z" fill="#EEE4D9"/>
<path d="M306.63 100.149H181.951C181.951 97.604 184.014 95.539 186.561 95.539C309.38 95.539 306.63 93.808 306.63 100.149Z" fill="#444244"/>
<path d="M307.196 100.716H181.384V100.15C181.384 97.296 183.706 94.973 186.56 94.973C213.023 94.973 233.385 94.894 249.745 94.83C295.833 94.651 304.137 94.618 306.445 96.939C307.218 97.717 307.208 98.703 307.199 99.748L307.196 100.716ZM182.557 99.583H306.066C306.072 98.657 306.039 98.138 305.641 97.738C303.668 95.753 292.249 95.799 249.749 95.963C233.388 96.027 213.025 96.106 186.56 96.106C184.523 96.106 182.833 97.62 182.557 99.583Z" fill="#444244"/>
<path d="M301.253 99.087C302.641 99.087 303.273 99.223 303.273 98.621C303.273 97.233 303.409 96.601 302.807 96.601C301.419 96.601 300.787 96.465 300.787 97.067C300.788 98.455 300.652 99.087 301.253 99.087Z" fill="#BEC0C2"/>
<path d="M301.306 98.852C301.234 98.852 301.161 98.824 301.106 98.769C300.995 98.658 300.995 98.479 301.106 98.368L302.555 96.918C302.666 96.807 302.845 96.807 302.956 96.918C303.067 97.029 303.067 97.208 302.956 97.319L301.506 98.769C301.451 98.825 301.378 98.852 301.306 98.852Z" fill="white"/>
<path d="M302.755 98.852C302.683 98.852 302.61 98.824 302.555 98.769L301.106 97.319C300.995 97.208 300.995 97.029 301.106 96.918C301.217 96.807 301.396 96.807 301.506 96.918L302.956 98.368C303.067 98.479 303.067 98.658 302.956 98.769C302.9 98.825 302.828 98.852 302.755 98.852Z" fill="white"/>
<path d="M200.735 107.856H188.445C188.289 107.856 188.162 107.729 188.162 107.573C188.162 107.416 188.289 107.29 188.445 107.29H200.735C200.892 107.29 201.018 107.417 201.018 107.573C201.019 107.729 200.892 107.856 200.735 107.856Z" fill="#EEE4D9"/>
<path d="M200.735 176.554H188.445C188.289 176.554 188.162 176.427 188.162 176.271C188.162 176.114 188.289 175.988 188.445 175.988H200.735C200.892 175.988 201.018 176.115 201.018 176.271C201.019 176.428 200.892 176.554 200.735 176.554Z" fill="#EEE4D9"/>
<path d="M188.446 176.554C188.29 176.554 188.163 176.427 188.163 176.271V107.573C188.163 107.416 188.29 107.29 188.446 107.29C188.603 107.29 188.729 107.417 188.729 107.573V176.271C188.729 176.428 188.602 176.554 188.446 176.554Z" fill="#EEE4D9"/>
<path d="M205.755 114.147H195.716C195.559 114.147 195.433 114.02 195.433 113.864C195.433 113.708 195.56 113.581 195.716 113.581H205.755C205.912 113.581 206.038 113.708 206.038 113.864C206.038 114.02 205.911 114.147 205.755 114.147Z" fill="#EEE4D9"/>
<path d="M205.755 170.264H195.716C195.559 170.264 195.433 170.137 195.433 169.981C195.433 169.825 195.56 169.698 195.716 169.698H205.755C205.912 169.698 206.038 169.825 206.038 169.981C206.038 170.137 205.911 170.264 205.755 170.264Z" fill="#EEE4D9"/>
<path d="M195.716 170.264C195.559 170.264 195.433 170.137 195.433 169.981V113.864C195.433 113.708 195.56 113.581 195.716 113.581C195.873 113.581 195.999 113.708 195.999 113.864V169.981C195.999 170.137 195.872 170.264 195.716 170.264Z" fill="#EEE4D9"/>
<path d="M211.924 122.498H204.873C204.716 122.498 204.59 122.371 204.59 122.215C204.59 122.059 204.717 121.932 204.873 121.932H211.924C212.081 121.932 212.207 122.059 212.207 122.215C212.207 122.371 212.08 122.498 211.924 122.498Z" fill="#EEE4D9"/>
<path d="M211.924 161.912H204.873C204.716 161.912 204.59 161.785 204.59 161.629C204.59 161.473 204.717 161.346 204.873 161.346H211.924C212.081 161.346 212.207 161.473 212.207 161.629C212.207 161.785 212.08 161.912 211.924 161.912Z" fill="#EEE4D9"/>
<path d="M204.873 161.912C204.716 161.912 204.59 161.785 204.59 161.629V122.215C204.59 122.059 204.717 121.932 204.873 121.932C205.03 121.932 205.156 122.059 205.156 122.215V161.629C205.156 161.786 205.029 161.912 204.873 161.912Z" fill="#EEE4D9"/>
<path d="M212.916 161.912C212.759 161.912 212.633 161.785 212.633 161.629V151.87C212.633 151.713 212.76 151.587 212.916 151.587C213.073 151.587 213.199 151.714 213.199 151.87V161.629C213.199 161.786 213.073 161.912 212.916 161.912Z" fill="#EEE4D9"/>
<path d="M215.214 132.891H204.872C204.715 132.891 204.589 132.764 204.589 132.608C204.589 132.451 204.716 132.325 204.872 132.325H215.214C215.371 132.325 215.497 132.452 215.497 132.608C215.498 132.764 215.371 132.891 215.214 132.891Z" fill="#EEE4D9"/>
<path d="M214.842 109.832C190.463 109.832 191.159 110.122 191.159 109.154C191.159 106.102 190.96 105.313 191.837 105.313C216.216 105.313 215.52 105.023 215.52 105.991C215.52 109.043 215.719 109.832 214.842 109.832Z" fill="#D0A0FF"/>
<path d="M224.418 116.337C200.039 116.337 200.735 116.627 200.735 115.659C200.735 112.607 200.536 111.818 201.413 111.818C225.792 111.818 225.096 111.528 225.096 112.496C225.097 115.548 225.296 116.337 224.418 116.337Z" fill="#FFEC40" fill-opacity="0.4"/>
<path d="M214.842 124.474C208.286 124.474 207.754 124.7 207.754 123.796C207.754 120.744 207.555 119.955 208.432 119.955C214.988 119.955 215.52 119.729 215.52 120.633C215.52 123.685 215.719 124.474 214.842 124.474Z" fill="#646464" fill-opacity="0.43"/>
<path d="M216.121 163.888C209.565 163.888 209.033 164.114 209.033 163.21C209.033 160.158 208.834 159.369 209.711 159.369C216.268 159.369 216.799 159.143 216.799 160.047C216.799 163.099 216.998 163.888 216.121 163.888Z" fill="#646464" fill-opacity="0.43"/>
<path d="M216.121 154.214C209.565 154.214 209.033 154.44 209.033 153.536C209.033 150.484 208.834 149.695 209.711 149.695C216.268 149.695 216.799 149.469 216.799 150.373C216.799 153.425 216.998 154.214 216.121 154.214Z" fill="#646464" fill-opacity="0.43"/>
<path d="M219.257 172.125C200.355 172.125 200.736 172.414 200.736 171.447C200.736 168.395 200.537 167.606 201.414 167.606H219.257C219.631 167.606 219.935 167.91 219.935 168.284V171.446C219.935 171.822 219.631 172.125 219.257 172.125Z" fill="#FFEC40" fill-opacity="0.4"/>
<path d="M241.371 172.125H223.528C223.153 172.125 222.85 171.821 222.85 171.447V168.285C222.85 167.91 223.154 167.607 223.528 167.607H241.371C241.746 167.607 242.049 167.911 242.049 168.285V171.447C242.049 171.822 241.745 172.125 241.371 172.125Z" fill="#FFEC40" fill-opacity="0.4"/>
<path d="M265.693 144.7H247.85C247.476 144.7 247.172 144.396 247.172 144.022C247.172 140.97 246.973 140.181 247.85 140.181H265.693C266.068 140.181 266.371 140.485 266.371 140.859V144.021C266.371 144.396 266.068 144.7 265.693 144.7Z" fill="#646464" fill-opacity="0.43"/>
<path d="M204.194 178.53C192.939 178.53 192.692 178.787 192.692 177.852C192.692 174.8 192.492 174.011 193.37 174.011C204.625 174.011 204.873 173.754 204.873 174.689V177.851C204.873 178.227 204.569 178.53 204.194 178.53Z" fill="#D0A0FF"/>
<path d="M262.064 109.832C217.397 109.832 219.58 110.145 219.58 109.154C219.58 106.102 219.381 105.313 220.258 105.313C264.924 105.313 262.742 105 262.742 105.991V109.153C262.742 109.529 262.438 109.832 262.064 109.832Z" fill="#FFEC40" fill-opacity="0.4"/>
<path d="M254.043 154.214C218.301 154.214 219.934 154.489 219.934 153.606C219.934 150.333 219.755 149.695 220.542 149.695H254.042C254.378 149.695 254.65 149.967 254.65 150.303V153.605C254.652 153.942 254.379 154.214 254.043 154.214Z" fill="#D0A0FF"/>
<path d="M250.238 134.867C205.572 134.867 207.754 135.18 207.754 134.189C207.754 131.137 207.555 130.348 208.432 130.348C253.099 130.348 250.916 130.035 250.916 131.026V134.189C250.916 134.563 250.612 134.867 250.238 134.867Z" fill="#D0A0FF"/>
<path d="M280.828 109.832C270.493 109.832 270.647 109.997 270.647 109.426C270.647 105.737 270.487 105.314 271.053 105.314C281.388 105.314 281.234 105.149 281.234 105.72C281.235 109.409 281.395 109.832 280.828 109.832Z" fill="#FFEC40" fill-opacity="0.4"/>
<path d="M293.522 109.832C283.187 109.832 283.341 109.997 283.341 109.426C283.341 105.737 283.181 105.314 283.747 105.314C294.082 105.314 293.928 105.149 293.928 105.72C293.928 109.409 294.089 109.832 293.522 109.832Z" fill="#646464" fill-opacity="0.43"/>
<path d="M347.163 265.991C241.353 265.991 243.422 267.609 243.422 262.122C243.422 200.322 241.962 199.265 247.291 199.265C353.102 199.265 351.033 197.647 351.033 203.134V262.122C351.032 264.259 349.3 265.991 347.163 265.991Z" fill="white"/>
<path d="M268.137 266.781C249.37 266.781 245.046 266.44 243.533 264.923C242.84 264.228 242.847 263.353 242.853 262.428L242.855 262.123C242.855 248.883 242.789 238.512 242.735 230.18C242.586 206.903 242.55 201.373 244.404 199.508C245.147 198.76 246.11 198.701 247.291 198.701C271.498 198.701 289.679 198.618 304.288 198.551C342.122 198.378 348.938 198.347 350.921 200.335C351.614 201.03 351.607 201.904 351.6 202.83L351.598 203.135V262.123C351.598 264.568 349.608 266.558 347.163 266.558C322.956 266.558 304.774 266.641 290.164 266.707C281.196 266.748 273.968 266.781 268.137 266.781ZM326.052 199.61C320.226 199.61 313.07 199.643 304.293 199.683C289.682 199.75 271.499 199.833 247.29 199.833C246.174 199.833 245.609 199.901 245.206 200.306C243.686 201.837 243.731 208.977 243.867 230.173C243.921 238.507 243.987 248.88 243.987 262.124L243.985 262.438C243.978 263.31 243.991 263.781 244.334 264.125C245.982 265.778 255.34 265.734 290.158 265.576C304.769 265.509 322.952 265.426 347.162 265.426C348.983 265.426 350.464 263.945 350.464 262.124L350.466 202.822C350.473 201.95 350.46 201.479 350.118 201.135C348.886 199.898 343.337 199.61 326.052 199.61Z" fill="#EEE4D9"/>
<path d="M351.032 202.582H243.422C243.422 200.75 244.907 199.266 246.738 199.266C354.737 199.266 351.032 198.011 351.032 202.582Z" fill="#444244"/>
<path d="M351.599 203.149H242.855V202.582C242.855 200.441 244.597 198.7 246.738 198.7C270.174 198.7 288.068 198.642 302.446 198.595C343.119 198.463 349.37 198.443 351.085 200.201C351.646 200.776 351.626 201.478 351.606 202.158C351.602 202.293 351.598 202.435 351.598 202.582V203.149H351.599ZM244.047 202.016H350.477C350.491 201.479 350.477 201.2 350.275 200.992C348.895 199.577 339.055 199.608 302.451 199.728C288.072 199.775 270.178 199.833 246.74 199.833C245.416 199.833 244.309 200.771 244.047 202.016Z" fill="#444244"/>
<path d="M346.357 201.818C347.288 201.818 348.135 202.011 348.135 201.451C348.135 200.776 348.292 200.03 347.768 200.03C346.837 200.03 345.99 199.837 345.99 200.397C345.99 201.072 345.832 201.818 346.357 201.818Z" fill="#BEC0C2"/>
<path d="M346.437 201.729C346.356 201.729 346.276 201.694 346.22 201.627C346.12 201.507 346.136 201.328 346.256 201.228L347.507 200.185C347.627 200.085 347.805 200.1 347.906 200.221C348.006 200.341 347.99 200.52 347.87 200.62L346.619 201.662C346.565 201.707 346.501 201.729 346.437 201.729Z" fill="white"/>
<path d="M347.688 201.729C347.624 201.729 347.56 201.708 347.507 201.663L346.256 200.621C346.136 200.521 346.12 200.342 346.22 200.222C346.321 200.102 346.499 200.087 346.619 200.186L347.87 201.229C347.99 201.329 348.006 201.508 347.906 201.628C347.85 201.694 347.769 201.729 347.688 201.729Z" fill="white"/>
<g opacity="0.8">
<path d="M286.48 260.754C286.48 258.915 286.295 258.056 287.108 258.056C288.947 258.056 289.806 257.871 289.806 258.684C289.806 260.523 289.991 261.382 289.178 261.382C287.339 261.381 286.48 261.566 286.48 260.754Z" fill="#B9B9B9"/>
<path d="M279.167 260.754C279.167 258.915 278.982 258.056 279.795 258.056C281.634 258.056 282.493 257.871 282.493 258.684C282.493 260.523 282.678 261.382 281.865 261.382C280.026 261.381 279.167 261.566 279.167 260.754Z" fill="#B9B9B9"/>
<path d="M271.379 260.754C271.379 258.915 271.195 258.056 272.007 258.056C273.846 258.056 274.705 257.871 274.705 258.684C274.705 260.523 274.89 261.382 274.077 261.382C272.238 261.381 271.379 261.566 271.379 260.754Z" fill="#B9B9B9"/>
<path d="M264.998 260.754C264.998 258.915 264.813 258.056 265.626 258.056C267.465 258.056 268.324 257.871 268.324 258.684C268.324 260.523 268.509 261.382 267.696 261.382C265.857 261.381 264.998 261.566 264.998 260.754Z" fill="#B9B9B9"/>
<path d="M257.534 260.754C257.534 258.915 257.35 258.056 258.162 258.056C260.001 258.056 260.86 257.871 260.86 258.684C260.86 260.523 261.045 261.382 260.232 261.382C258.393 261.381 257.534 261.566 257.534 260.754Z" fill="#B9B9B9"/>
</g>
<path d="M271.217 210.601C257.987 210.601 257.534 210.963 257.534 209.606C257.534 208.599 257.329 207.276 258.53 207.276C271.76 207.276 272.213 206.914 272.213 208.271C272.212 209.278 272.417 210.601 271.217 210.601Z" fill="#D0A0FF"/>
<path opacity="0.8" d="M320.27 210.601C274.517 210.601 276.058 211.055 276.058 209.606C276.058 208.599 275.853 207.276 277.054 207.276C322.807 207.276 321.265 206.822 321.265 208.271V209.606C321.265 210.155 320.82 210.601 320.27 210.601Z" fill="#B9B9B9"/>
<path opacity="0.8" d="M320.27 225.227C274.517 225.227 276.058 225.681 276.058 224.232C276.058 223.225 275.853 221.902 277.054 221.902H320.27C320.82 221.902 321.265 222.348 321.265 222.897V224.231C321.265 224.781 320.82 225.227 320.27 225.227Z" fill="#B9B9B9"/>
<path opacity="0.8" d="M320.27 239.853H277.054C275.618 239.853 275.619 236.527 277.054 236.527H320.27C320.82 236.527 321.265 236.973 321.265 237.522V238.857C321.265 239.407 320.82 239.853 320.27 239.853Z" fill="#B9B9B9"/>
<path opacity="0.8" d="M320.27 254.479C274.517 254.479 276.058 254.933 276.058 253.484C276.058 252.477 275.853 251.154 277.054 251.154C322.807 251.154 321.265 250.7 321.265 252.149C321.265 253.156 321.47 254.479 320.27 254.479Z" fill="#B9B9B9"/>
<path d="M271.217 217.914C257.987 217.914 257.534 218.276 257.534 216.919C257.534 215.912 257.329 214.589 258.53 214.589C271.76 214.589 272.213 214.227 272.213 215.584C272.212 216.591 272.417 217.914 271.217 217.914Z" fill="#D0A0FF"/>
<path d="M271.217 225.227C257.987 225.227 257.534 225.589 257.534 224.232C257.534 223.225 257.329 221.902 258.53 221.902C271.76 221.902 272.213 221.54 272.213 222.897C272.212 223.904 272.417 225.227 271.217 225.227Z" fill="#D0A0FF"/>
<path d="M271.217 232.54C257.987 232.54 257.534 232.902 257.534 231.545C257.534 230.538 257.329 229.215 258.53 229.215C271.76 229.215 272.213 228.853 272.213 230.21C272.212 231.217 272.417 232.54 271.217 232.54Z" fill="#D0A0FF"/>
<path d="M271.217 239.853C257.987 239.853 257.534 240.215 257.534 238.858C257.534 237.851 257.329 236.528 258.53 236.528C271.76 236.528 272.213 236.166 272.213 237.523V238.858C272.212 239.407 271.766 239.853 271.217 239.853Z" fill="#D0A0FF"/>
<path d="M271.217 247.166C257.987 247.166 257.534 247.528 257.534 246.171C257.534 245.164 257.329 243.841 258.53 243.841C271.76 243.841 272.213 243.479 272.213 244.837C272.212 245.843 272.417 247.166 271.217 247.166Z" fill="#D0A0FF"/>
<path d="M271.217 254.479C257.987 254.479 257.534 254.841 257.534 253.484C257.534 252.477 257.329 251.154 258.53 251.154C271.76 251.154 272.213 250.792 272.213 252.149C272.212 253.156 272.417 254.479 271.217 254.479Z" fill="#D0A0FF"/>
<path d="M335.924 217.914C322.694 217.914 322.241 218.276 322.241 216.919C322.241 215.912 322.036 214.589 323.236 214.589C336.466 214.589 336.919 214.227 336.919 215.584C336.92 216.591 337.125 217.914 335.924 217.914Z" fill="#D0A0FF"/>
<path d="M335.924 232.54C322.694 232.54 322.241 232.902 322.241 231.545C322.241 230.538 322.036 229.215 323.236 229.215C336.466 229.215 336.919 228.853 336.919 230.21C336.92 231.217 337.125 232.54 335.924 232.54Z" fill="#D0A0FF"/>
<path d="M335.924 247.166C322.694 247.166 322.241 247.528 322.241 246.171C322.241 245.164 322.036 243.841 323.236 243.841C336.466 243.841 336.919 243.479 336.919 244.837C336.92 245.843 337.125 247.166 335.924 247.166Z" fill="#D0A0FF"/>
<path d="M303.704 217.951H291.017C290.467 217.951 290.021 217.505 290.021 216.956V215.621C290.021 215.071 290.467 214.626 291.017 214.626H303.704C304.254 214.626 304.699 215.072 304.699 215.621V216.956C304.699 217.505 304.254 217.951 303.704 217.951Z" fill="#FFEC40" fill-opacity="0.4"/>
<path d="M303.704 232.577C290.474 232.577 290.021 232.939 290.021 231.582C290.021 230.575 289.816 229.252 291.017 229.252H303.704C304.254 229.252 304.699 229.698 304.699 230.247V231.581C304.699 232.131 304.254 232.577 303.704 232.577Z" fill="#FFEC40" fill-opacity="0.4"/>
<path d="M303.704 247.203C290.474 247.203 290.021 247.565 290.021 246.208C290.021 245.201 289.816 243.878 291.017 243.878C304.247 243.878 304.7 243.516 304.7 244.873C304.699 245.88 304.904 247.203 303.704 247.203Z" fill="#FFEC40" fill-opacity="0.4"/>
<path d="M377.905 221.646C263.1 221.646 265.835 223.246 265.835 217.467V153.743C265.835 151.435 267.706 149.564 270.014 149.564C384.819 149.564 382.084 147.964 382.084 153.743V217.467C382.084 219.775 380.213 221.646 377.905 221.646Z" fill="white"/>
<path d="M294.32 222.377C272.545 222.377 267.605 222.023 265.984 220.39C265.283 219.685 265.294 218.796 265.304 217.855L265.307 217.467V153.743C265.307 151.148 267.418 149.037 270.014 149.037C295.034 149.037 314.184 148.962 329.571 148.902C372.16 148.734 379.835 148.706 381.934 150.821C382.635 151.526 382.624 152.415 382.614 153.356L382.611 153.744V217.468C382.611 220.063 380.5 222.174 377.904 222.174C352.881 222.174 333.729 222.249 318.341 222.309C308.639 222.346 300.745 222.377 294.32 222.377ZM353.157 149.889C346.766 149.889 338.997 149.919 329.575 149.956C314.187 150.016 295.036 150.091 270.014 150.091C268 150.091 266.362 151.73 266.362 153.743L266.359 217.867C266.349 218.779 266.361 219.272 266.733 219.647C268.522 221.448 279.074 221.406 318.339 221.254C333.728 221.194 352.881 221.119 377.906 221.119C379.92 221.119 381.558 219.481 381.558 217.467L381.561 153.343C381.571 152.431 381.559 151.938 381.188 151.563C379.827 150.194 373.403 149.889 353.157 149.889Z" fill="#EEE4D9"/>
<path d="M382.084 153.147H265.835C265.835 151.169 267.439 149.565 269.417 149.565C385.916 149.564 382.084 148.209 382.084 153.147Z" fill="#444244"/>
<path d="M382.611 153.673H265.307V153.146C265.307 150.88 267.151 149.037 269.417 149.037C294.69 149.037 313.999 148.974 329.515 148.924C372.491 148.784 380.234 148.759 382.073 150.64C382.657 151.238 382.638 151.949 382.619 152.704C382.616 152.845 382.612 152.993 382.612 153.147V153.673H382.611ZM266.407 152.62H381.566C381.582 151.985 381.571 151.636 381.319 151.377C379.792 149.815 370.141 149.846 329.518 149.978C314.002 150.028 294.692 150.091 269.417 150.091C267.912 150.091 266.658 151.185 266.407 152.62Z" fill="#444244"/>
<path d="M377.033 152.321C378.224 152.321 378.954 152.491 378.954 151.925C378.954 151.195 379.124 150.39 378.558 150.39C377.367 150.39 376.637 150.22 376.637 150.786C376.637 151.516 376.467 152.321 377.033 152.321Z" fill="#BEC0C2"/>
<path d="M377.12 152.182C377.045 152.182 376.97 152.15 376.917 152.087C376.824 151.975 376.839 151.809 376.951 151.716L378.303 150.59C378.414 150.498 378.581 150.511 378.674 150.624C378.767 150.736 378.752 150.902 378.64 150.995L377.288 152.121C377.239 152.162 377.179 152.182 377.12 152.182Z" fill="white"/>
<path d="M378.472 152.182C378.412 152.182 378.352 152.162 378.303 152.121L376.951 150.995C376.839 150.902 376.824 150.735 376.917 150.624C377.011 150.512 377.177 150.498 377.288 150.59L378.64 151.716C378.752 151.809 378.767 151.976 378.674 152.087C378.622 152.15 378.547 152.182 378.472 152.182Z" fill="white"/>
<path d="M285.539 159.079H275.352C275.222 159.079 275.117 158.974 275.117 158.844C275.117 158.714 275.222 158.609 275.352 158.609H285.539C285.668 158.609 285.774 158.714 285.774 158.844C285.773 158.974 285.668 159.079 285.539 159.079Z" fill="#EEE4D9"/>
<path d="M285.539 216.022H275.352C275.222 216.022 275.117 215.917 275.117 215.787C275.117 215.657 275.222 215.552 275.352 215.552H285.539C285.668 215.552 285.774 215.657 285.774 215.787C285.774 215.917 285.668 216.022 285.539 216.022Z" fill="#EEE4D9"/>
<path d="M275.352 216.022C275.222 216.022 275.117 215.917 275.117 215.787V158.844C275.117 158.714 275.222 158.609 275.352 158.609C275.481 158.609 275.587 158.714 275.587 158.844V215.787C275.587 215.917 275.481 216.022 275.352 216.022Z" fill="#EEE4D9"/>
<path d="M285.181 171.215H279.336C279.206 171.215 279.101 171.11 279.101 170.98C279.101 170.85 279.206 170.745 279.336 170.745H285.181C285.31 170.745 285.416 170.85 285.416 170.98C285.416 171.11 285.311 171.215 285.181 171.215Z" fill="#EEE4D9"/>
<path d="M285.181 203.885H279.336C279.206 203.885 279.101 203.78 279.101 203.65C279.101 203.521 279.206 203.416 279.336 203.416H285.181C285.31 203.416 285.416 203.521 285.416 203.65C285.416 203.779 285.311 203.885 285.181 203.885Z" fill="#EEE4D9"/>
<path d="M279.337 203.885C279.207 203.885 279.102 203.78 279.102 203.65V170.981C279.102 170.851 279.207 170.746 279.337 170.746C279.466 170.746 279.571 170.851 279.571 170.981V203.65C279.571 203.779 279.466 203.885 279.337 203.885Z" fill="#EEE4D9"/>
<path d="M287.909 179.83H279.337C279.207 179.83 279.102 179.725 279.102 179.595C279.102 179.465 279.207 179.36 279.337 179.36H287.909C288.038 179.36 288.144 179.465 288.144 179.595C288.144 179.725 288.038 179.83 287.909 179.83Z" fill="#EEE4D9"/>
<path d="M297.232 160.717H278.163C277.853 160.717 277.601 160.465 277.601 160.155V157.534C277.601 157.223 277.853 156.972 278.163 156.972C298.365 156.972 297.794 156.732 297.794 157.534V160.155C297.794 160.465 297.542 160.717 297.232 160.717Z" fill="#D0A0FF"/>
<path d="M288.406 217.66H279.434C279.124 217.66 278.872 217.408 278.872 217.098V214.477C278.872 214.166 279.124 213.915 279.434 213.915H288.406C288.716 213.915 288.968 214.167 288.968 214.477V217.098C288.968 217.408 288.716 217.66 288.406 217.66Z" fill="#D0A0FF"/>
<path d="M339.335 179.83H315.596C315.467 179.83 315.361 179.725 315.361 179.595C315.361 179.465 315.466 179.36 315.596 179.36H339.335C339.465 179.36 339.57 179.465 339.57 179.595C339.569 179.725 339.464 179.83 339.335 179.83Z" fill="#EEE4D9"/>
<path d="M336.373 160.717C299.392 160.717 301.159 160.98 301.159 160.155C301.159 157.7 300.988 156.972 301.721 156.972C338.702 156.972 336.935 156.709 336.935 157.534C336.935 159.989 337.105 160.717 336.373 160.717Z" fill="#FFEC40" fill-opacity="0.4"/>
<path d="M310.687 205.523H282.919C282.641 205.523 282.415 205.297 282.415 205.019V202.282C282.415 202.004 282.641 201.778 282.919 201.778H310.687C310.966 201.778 311.191 202.004 311.191 202.282V205.019C311.192 205.297 310.966 205.523 310.687 205.523Z" fill="#D0A0FF"/>
<path d="M316.939 181.467H282.287C281.977 181.467 281.725 181.215 281.725 180.905V178.284C281.725 177.974 281.977 177.722 282.287 177.722H316.939C317.249 177.722 317.501 177.974 317.501 178.284V180.905C317.502 181.216 317.25 181.467 316.939 181.467Z" fill="#D0A0FF"/>
<path d="M337.257 204.938H326.736C326.606 204.938 326.501 204.833 326.501 204.703C326.501 204.573 326.606 204.468 326.736 204.468H337.257C337.387 204.468 337.492 204.573 337.492 204.703C337.492 204.833 337.386 204.938 337.257 204.938Z" fill="#EEE4D9"/>
<path d="M337.257 196.613H326.736C326.606 196.613 326.501 196.508 326.501 196.378C326.501 196.248 326.606 196.143 326.736 196.143H337.257C337.387 196.143 337.492 196.248 337.492 196.378C337.492 196.508 337.386 196.613 337.257 196.613Z" fill="#EEE4D9"/>
<path d="M337.257 188.287H326.736C326.606 188.287 326.501 188.182 326.501 188.052C326.501 187.922 326.606 187.817 326.736 187.817H337.257C337.387 187.817 337.492 187.922 337.492 188.052C337.491 188.182 337.386 188.287 337.257 188.287Z" fill="#EEE4D9"/>
<path d="M330.786 181.6C322.673 181.6 322.347 181.814 322.347 181.263C322.347 178.652 322.133 177.854 322.684 177.854C330.797 177.854 331.123 177.64 331.123 178.191C331.123 180.803 331.337 181.6 330.786 181.6Z" fill="#FFEC40" fill-opacity="0.4"/>
<path d="M308.189 192.436H289.723C289.446 192.436 289.221 192.211 289.221 191.934V189.192C289.221 188.915 289.446 188.69 289.723 188.69H308.189C308.466 188.69 308.691 188.915 308.691 189.192V191.934C308.691 192.211 308.467 192.436 308.189 192.436Z" fill="#FFEC40" fill-opacity="0.4"/>
<path d="M330.786 189.925C322.673 189.925 322.347 190.139 322.347 189.588C322.347 186.977 322.133 186.179 322.684 186.179C330.797 186.179 331.123 185.965 331.123 186.516C331.123 189.128 331.337 189.925 330.786 189.925Z" fill="#FFEC40" fill-opacity="0.4"/>
<path d="M330.786 198.25C322.673 198.25 322.347 198.464 322.347 197.913C322.347 195.302 322.133 194.504 322.684 194.504C330.797 194.504 331.123 194.29 331.123 194.841C331.123 197.453 331.337 198.25 330.786 198.25Z" fill="#FFEC40" fill-opacity="0.4"/>
<path d="M330.786 206.576C322.673 206.576 322.347 206.79 322.347 206.239C322.347 203.628 322.133 202.83 322.684 202.83C330.797 202.83 331.123 202.616 331.123 203.167C331.123 205.779 331.337 206.576 330.786 206.576Z" fill="#FFEC40" fill-opacity="0.4"/>
<path d="M331.996 204.938C331.866 204.938 331.761 204.833 331.761 204.703V179.595C331.761 179.465 331.866 179.36 331.996 179.36C332.125 179.36 332.231 179.465 332.231 179.595V204.703C332.23 204.832 332.125 204.938 331.996 204.938Z" fill="#EEE4D9"/>
<path d="M287.6 172.853H282.287C281.977 172.853 281.725 172.601 281.725 172.291V169.67C281.725 169.359 281.977 169.108 282.287 169.108H287.6C287.91 169.108 288.162 169.36 288.162 169.67V172.291C288.162 172.602 287.911 172.853 287.6 172.853Z" fill="#C4C4C4"/>
<path d="M341.308 181.6C333.195 181.6 332.869 181.814 332.869 181.263C332.869 178.652 332.655 177.854 333.206 177.854C341.319 177.854 341.645 177.64 341.645 178.191C341.644 180.803 341.858 181.6 341.308 181.6Z" fill="#C4C4C4"/>
<path d="M341.308 189.925C333.195 189.925 332.869 190.139 332.869 189.588C332.869 186.977 332.655 186.179 333.206 186.179C341.319 186.179 341.645 185.965 341.645 186.516V189.588C341.644 189.774 341.494 189.925 341.308 189.925Z" fill="#C4C4C4"/>
<path d="M341.308 198.25C333.195 198.25 332.869 198.464 332.869 197.913C332.869 195.302 332.655 194.504 333.206 194.504C341.319 194.504 341.645 194.29 341.645 194.841C341.644 197.453 341.858 198.25 341.308 198.25Z" fill="#C4C4C4"/>
<path d="M341.308 206.576C333.195 206.576 332.869 206.79 332.869 206.239C332.869 203.628 332.655 202.83 333.206 202.83C341.319 202.83 341.645 202.616 341.645 203.167C341.644 205.779 341.858 206.576 341.308 206.576Z" fill="#C4C4C4"/>
<path d="M346.459 160.717C341.04 160.717 340.584 160.906 340.584 160.155C340.584 157.7 340.414 156.972 341.146 156.972C346.565 156.972 347.021 156.783 347.021 157.534C347.021 159.989 347.192 160.717 346.459 160.717Z" fill="#C4C4C4"/>
<path d="M357.497 160.717C352.078 160.717 351.622 160.906 351.622 160.155C351.622 157.7 351.451 156.972 352.184 156.972C357.603 156.972 358.059 156.783 358.059 157.534C358.059 159.989 358.23 160.717 357.497 160.717Z" fill="#C4C4C4"/>
<path d="M368.535 160.717C363.116 160.717 362.66 160.906 362.66 160.155C362.66 157.7 362.49 156.972 363.222 156.972C368.641 156.972 369.097 156.783 369.097 157.534C369.098 159.989 369.268 160.717 368.535 160.717Z" fill="#C4C4C4"/>
<path d="M104.076 208.381C115.117 208.381 124.067 199.431 124.067 188.39C124.067 177.349 115.117 168.399 104.076 168.399C93.0352 168.399 84.085 177.349 84.085 188.39C84.085 199.431 93.0352 208.381 104.076 208.381Z" fill="white"/>
<path d="M104.076 209.379C92.503 209.379 83.087 199.964 83.087 188.39C83.087 176.816 92.503 167.401 104.076 167.401C115.649 167.401 125.065 176.816 125.065 188.39C125.065 199.964 115.649 209.379 104.076 209.379ZM104.076 169.396C93.603 169.396 85.082 177.917 85.082 188.39C85.082 198.863 93.602 207.384 104.076 207.384C114.55 207.384 123.07 198.863 123.07 188.39C123.07 177.917 114.549 169.396 104.076 169.396Z" fill="#D1868D"/>
<g opacity="0.3">
<path d="M103.684 170.726C105.166 170.25 105.887 172.493 104.404 172.969C102.922 173.444 102.201 171.202 103.684 170.726Z" fill="#72787A"/>
<path d="M112.511 172.858C114.032 173.187 113.536 175.49 112.013 175.16C110.491 174.831 110.988 172.529 112.511 172.858Z" fill="#72787A"/>
<path d="M119.586 180.115C120.671 181.231 118.984 182.874 117.897 181.757C116.812 180.642 118.5 178.998 119.586 180.115Z" fill="#72787A"/>
<path d="M119.356 188.337C119.371 186.781 121.727 186.802 121.711 188.36C121.696 189.916 119.341 189.895 119.356 188.337Z" fill="#72787A"/>
<path d="M95.576 172.858C94.055 173.187 94.551 175.49 96.074 175.16C97.595 174.831 97.099 172.529 95.576 172.858Z" fill="#72787A"/>
<path d="M88.501 180.115C87.416 181.231 89.103 182.874 90.19 181.757C91.275 180.642 89.587 178.998 88.501 180.115Z" fill="#72787A"/>
<path d="M88.731 188.337C88.716 186.781 86.36 186.802 86.376 188.36C86.391 189.916 88.746 189.895 88.731 188.337Z" fill="#72787A"/>
<path d="M103.688 205.967C105.17 206.443 105.891 204.2 104.408 203.724C102.926 203.248 102.205 205.491 103.688 205.967Z" fill="#72787A"/>
<path d="M112.515 203.835C114.036 203.506 113.54 201.203 112.017 201.533C110.495 201.861 110.992 204.164 112.515 203.835Z" fill="#72787A"/>
<path d="M119.59 196.578C120.675 195.462 118.987 193.819 117.901 194.936C116.816 196.051 118.504 197.695 119.59 196.578Z" fill="#72787A"/>
<path d="M95.58 203.835C94.059 203.506 94.555 201.203 96.078 201.533C97.599 201.861 97.103 204.164 95.58 203.835Z" fill="#72787A"/>
<path d="M88.505 196.578C87.42 195.462 89.108 193.819 90.194 194.936C91.279 196.051 89.591 197.695 88.505 196.578Z" fill="#72787A"/>
</g>
<path d="M104.033 189.376C103.942 189.376 103.852 189.351 103.772 189.302C103.624 189.211 103.534 189.05 103.534 188.877V175.847C103.534 175.572 103.757 175.348 104.033 175.348C104.308 175.348 104.531 175.571 104.531 175.847V188.064L115.648 182.406C115.894 182.28 116.194 182.379 116.319 182.624C116.444 182.87 116.347 183.17 116.101 183.295L104.259 189.322C104.188 189.359 104.111 189.376 104.033 189.376Z" fill="#72787A"/>
<mask id="mask0_753_630" style="mask-type:luminance" maskUnits="userSpaceOnUse" x="77" y="205" width="225" height="163">
<path d="M301.827 205.129H77.604V367.951H301.827V205.129Z" fill="white"/>
</mask>
<g mask="url(#mask0_753_630)">
<path d="M209.458 295.816H180.173L188.162 278.5H201.468L209.458 295.816Z" fill="#72787A"/>
<path d="M240.236 280.687C143.472 280.687 147.4 281.533 147.4 278.787C147.4 213.737 146.586 216.002 149.3 216.002C246.064 216.002 242.136 215.156 242.136 217.902C242.136 282.951 242.95 280.687 240.236 280.687Z" fill="#9C9FA0"/>
<path d="M238.123 268.219C146.165 268.219 149.514 269.086 149.514 266.319C149.514 217.193 148.708 217.89 151.413 217.89C243.372 217.89 240.022 217.023 240.022 219.79C240.022 268.916 240.828 268.219 238.123 268.219Z" fill="#2F3D69"/>
<path d="M194.636 277.217C191.159 277.217 191.155 271.954 194.636 271.954C198.114 271.954 198.117 277.217 194.636 277.217Z" fill="#72787A"/>
<path d="M226.999 264.588C158.621 264.588 160.04 265.608 160.04 262.091C160.04 222.197 159.097 221.521 162.537 221.521C230.915 221.521 229.496 220.501 229.496 224.018C229.496 263.911 230.439 264.588 226.999 264.588Z" fill="white"/>
<path d="M176.239 265.041C163.933 265.041 161.108 264.824 160.143 263.856C159.714 263.426 159.719 262.878 159.724 262.299L159.725 262.092C159.725 253.539 159.682 246.842 159.648 241.462C159.551 226.465 159.528 222.901 160.709 221.713C161.175 221.244 161.786 221.207 162.537 221.207C177.984 221.207 189.643 221.156 199.012 221.115C223.686 221.007 228.131 220.988 229.393 222.254C229.822 222.684 229.817 223.232 229.812 223.811L229.811 224.019C229.811 232.572 229.854 239.269 229.888 244.649C229.985 259.646 230.008 263.209 228.827 264.398C228.361 264.867 227.75 264.904 226.999 264.904C211.552 264.904 199.893 264.955 190.524 264.996C184.715 265.021 180.028 265.041 176.239 265.041ZM213.038 221.699C209.268 221.699 204.653 221.719 199.015 221.744C189.645 221.785 177.985 221.836 162.537 221.836C161.895 221.836 161.451 221.858 161.155 222.156C160.159 223.158 160.187 227.401 160.277 241.456C160.311 246.838 160.354 253.536 160.354 262.091L160.353 262.304C160.348 262.872 160.356 263.179 160.588 263.411C161.664 264.492 167.777 264.465 190.52 264.365C199.89 264.324 211.55 264.273 226.998 264.273C227.64 264.273 228.084 264.251 228.38 263.953C229.376 262.951 229.348 258.709 229.258 244.653C229.224 239.271 229.181 232.573 229.181 224.018L229.182 223.805C229.187 223.237 229.179 222.93 228.947 222.698C228.138 221.885 224.478 221.699 213.038 221.699Z" fill="#EEE4D9"/>
<path d="M229.496 223.661H160.04C160.04 222.48 160.997 221.521 162.18 221.521C231.677 221.521 229.496 220.607 229.496 223.661Z" fill="#444244"/>
<path d="M229.811 223.976H159.726V223.661C159.726 222.307 160.827 221.206 162.181 221.206C178.311 221.206 190.795 221.156 199.911 221.119C224.035 221.024 228.382 221.005 229.478 222.121C229.837 222.486 229.826 222.929 229.815 223.397C229.813 223.482 229.811 223.569 229.811 223.66V223.976ZM160.382 223.346H229.186C229.194 222.946 229.187 222.726 229.027 222.563C228.118 221.636 222.144 221.662 199.912 221.749C190.796 221.786 178.311 221.836 162.18 221.836C161.281 221.836 160.532 222.489 160.382 223.346Z" fill="#444244"/>
<path d="M226.479 223.168H227.39C227.718 223.168 227.821 222.014 227.39 222.014H226.479C226.069 222.014 226.242 223.234 226.242 222.931C226.242 223.062 226.348 223.168 226.479 223.168Z" fill="#BEC0C2"/>
<path d="M226.53 223.085C226.485 223.085 226.44 223.066 226.409 223.028C226.354 222.961 226.363 222.862 226.43 222.806L227.237 222.133C227.303 222.078 227.403 222.086 227.459 222.153C227.514 222.22 227.506 222.319 227.439 222.375L226.632 223.048C226.602 223.073 226.566 223.085 226.53 223.085Z" fill="white"/>
<path d="M227.338 223.085C227.303 223.085 227.267 223.073 227.237 223.049L226.43 222.376C226.363 222.32 226.354 222.221 226.409 222.154C226.465 222.086 226.565 222.079 226.631 222.134L227.438 222.807C227.505 222.863 227.514 222.962 227.458 223.029C227.427 223.066 227.382 223.085 227.338 223.085Z" fill="white"/>
<path d="M187.2 233.24C168.88 233.24 169.423 233.437 169.423 232.803C169.423 231.305 169.294 230.728 169.86 230.728C188.18 230.728 187.637 230.531 187.637 231.165C187.637 232.663 187.767 233.24 187.2 233.24Z" fill="#D0A0FF"/>
<path d="M200.891 255.367C168.024 255.367 169.423 255.636 169.423 254.787C169.423 253.631 169.273 252.855 170.003 252.855C202.87 252.855 201.471 252.586 201.471 253.435C201.471 254.591 201.621 255.367 200.891 255.367Z" fill="#D0A0FF"/>
<path d="M167.109 233.268C165.704 233.268 165.048 233.409 165.048 232.788C165.048 231.383 164.907 230.727 165.527 230.727C166.932 230.727 167.588 230.586 167.588 231.206C167.588 232.612 167.729 233.268 167.109 233.268Z" fill="#FFEC40" fill-opacity="0.4"/>
<path d="M167.109 238.855C165.704 238.855 165.048 238.996 165.048 238.376C165.048 236.971 164.907 236.315 165.527 236.315C166.932 236.315 167.588 236.174 167.588 236.794C167.588 238.199 167.729 238.855 167.109 238.855Z" fill="#FFEC40" fill-opacity="0.4"/>
<path d="M167.109 244.804C165.704 244.804 165.048 244.945 165.048 244.324C165.048 242.919 164.907 242.263 165.527 242.263C166.932 242.263 167.588 242.122 167.588 242.743C167.588 244.148 167.729 244.804 167.109 244.804Z" fill="#FFEC40" fill-opacity="0.4"/>
<path d="M167.109 249.679C165.704 249.679 165.048 249.82 165.048 249.2C165.048 247.795 164.907 247.139 165.527 247.139C166.932 247.139 167.588 246.998 167.588 247.618C167.588 249.023 167.729 249.679 167.109 249.679Z" fill="#FFEC40" fill-opacity="0.4"/>
<path d="M167.109 255.381C165.704 255.381 165.048 255.522 165.048 254.902C165.048 253.497 164.907 252.841 165.527 252.841C166.932 252.841 167.588 252.7 167.588 253.32C167.588 254.725 167.729 255.381 167.109 255.381Z" fill="#FFEC40" fill-opacity="0.4"/>
<path opacity="0.8" d="M223.724 233.282C188.869 233.282 189.994 233.633 189.994 232.518C189.994 231.715 189.839 230.714 190.758 230.714C225.613 230.714 224.488 230.363 224.488 231.478C224.488 232.281 224.643 233.282 223.724 233.282Z" fill="#9C9FA0"/>
<path d="M187.2 238.826C168.88 238.826 169.423 239.023 169.423 238.389C169.423 236.891 169.294 236.314 169.86 236.314C188.18 236.314 187.637 236.117 187.637 236.751C187.637 238.249 187.767 238.826 187.2 238.826Z" fill="#D0A0FF"/>
<path opacity="0.8" d="M220.287 238.869C188.951 238.869 189.994 239.188 189.994 238.144C189.994 237.262 189.837 236.3 190.719 236.3C222.055 236.3 221.012 235.981 221.012 237.025C221.012 237.907 221.168 238.869 220.287 238.869Z" fill="#9C9FA0"/>
<path d="M187.2 244.776C168.88 244.776 169.423 244.973 169.423 244.339C169.423 242.841 169.294 242.264 169.86 242.264C188.18 242.264 187.637 242.067 187.637 242.701C187.637 244.199 187.767 244.776 187.2 244.776Z" fill="#D0A0FF"/>
<path opacity="0.8" d="M214.554 244.818C189.27 244.818 189.994 245.1 189.994 244.165C189.994 243.171 189.825 242.25 190.647 242.25C215.931 242.25 215.207 241.968 215.207 242.903C215.207 243.897 215.377 244.818 214.554 244.818Z" fill="#9C9FA0"/>
<path opacity="0.8" d="M214.554 250.963C189.27 250.963 189.994 251.245 189.994 250.31C189.994 249.316 189.825 248.395 190.647 248.395C215.931 248.395 215.207 248.113 215.207 249.048C215.207 250.042 215.377 250.963 214.554 250.963Z" fill="#9C9FA0"/>
<path d="M187.2 250.725C168.88 250.725 169.423 250.922 169.423 250.288C169.423 248.79 169.294 248.213 169.86 248.213C188.18 248.213 187.637 248.016 187.637 248.65C187.637 250.148 187.767 250.725 187.2 250.725Z" fill="#D0A0FF"/>
<path opacity="0.8" d="M223.875 255.395C201.998 255.395 202.601 255.655 202.601 254.786C202.601 253.757 202.423 252.826 203.21 252.826C225.087 252.826 224.484 252.566 224.484 253.435C224.483 254.464 224.662 255.395 223.875 255.395Z" fill="#9C9FA0"/>
<path d="M292.258 316.103C292.258 295.038 292.442 295.882 291.851 295.882C104.477 295.882 113.992 295.671 113.992 296.289V316.103C113.993 316.565 292.258 316.885 292.258 316.103Z" fill="#AE584B"/>
<path d="M280.828 312.307C210.116 312.307 212.824 312.965 212.824 310.787C212.824 301.047 212.344 299.573 214.344 299.573C285.056 299.573 282.348 298.915 282.348 301.093C282.347 310.834 282.827 312.307 280.828 312.307Z" fill="#D16A4B"/>
<path d="M247.585 308.53C244.052 308.53 244.048 303.182 247.585 303.182C251.119 303.182 251.123 308.53 247.585 308.53Z" fill="#AE584B"/>
<path d="M205.447 312.307C134.735 312.307 137.443 312.965 137.443 310.787C137.443 301.047 136.963 299.573 138.963 299.573C209.675 299.573 206.967 298.915 206.967 301.093C206.966 310.834 207.447 312.307 205.447 312.307Z" fill="#D16A4B"/>
<path d="M172.205 308.53C168.671 308.53 168.668 303.182 172.205 303.182C175.738 303.182 175.742 308.53 172.205 308.53Z" fill="#AE584B"/>
<path d="M269.466 316.509H143.152V322.112H269.466V316.509Z" fill="#D16A4B"/>
<path d="M273.281 317.655L288.062 398.991C288.558 401.722 285.193 401.493 284.742 399.807C261.811 313.99 261.603 316.418 264.309 316.439C272.092 316.502 273.007 316.144 273.281 317.655Z" fill="#AE584B"/>
<path d="M127.662 317.664C127.6 318.006 112.823 399.098 112.874 399.442C113.293 402.277 115.902 400.931 116.204 399.804C139.196 313.759 139.283 316.419 136.623 316.44C128.837 316.502 127.937 316.152 127.662 317.664Z" fill="#AE584B"/>
<path d="M137.488 333.164C137.594 333.495 162.642 412.024 162.849 412.304C164.551 414.61 166.222 412.196 165.958 411.059C145.835 324.298 147.162 326.605 144.823 327.874C137.98 331.586 137.021 331.7 137.488 333.164Z" fill="#AE584B"/>
</g>
<mask id="mask1_753_630" style="mask-type:luminance" maskUnits="userSpaceOnUse" x="77" y="205" width="225" height="163">
<path d="M301.827 205.129H77.604V367.951H301.827V205.129Z" fill="white"/>
</mask>
<g mask="url(#mask1_753_630)">
<path d="M135.117 307.665L134.972 307.188C143.481 304.598 142.694 300.102 141.698 294.41C140.768 289.098 139.611 282.486 146.156 275.759L146.513 276.107C140.146 282.651 141.231 288.853 142.189 294.324C143.187 300.024 144.049 304.947 135.117 307.665Z" fill="#84534A"/>
</g>
<mask id="mask2_753_630" style="mask-type:luminance" maskUnits="userSpaceOnUse" x="77" y="205" width="225" height="163">
<path d="M301.827 205.129H77.604V367.951H301.827V205.129Z" fill="white"/>
</mask>
<g mask="url(#mask2_753_630)">
<path d="M204.908 388.919C203.21 388.834 195.061 391.126 189.883 397.578C189.883 397.578 171.972 382.723 163.653 359.803L179.188 350.635C179.188 350.635 192.346 373.215 196.42 379.242C200.494 385.269 204.908 388.919 204.908 388.919Z" fill="#637690"/>
<path d="M189.923 397.98L189.701 397.796C189.521 397.647 171.636 382.628 163.385 359.899L163.305 359.678L179.287 350.246L179.43 350.492C179.562 350.718 192.63 373.133 196.653 379.083C200.655 385.004 205.044 388.664 205.088 388.7L205.746 389.244L204.893 389.201C203.538 389.13 195.406 391.147 190.102 397.754L189.923 397.98ZM163.999 359.927C171.733 381.029 187.788 395.394 189.846 397.174C194.495 391.545 201.499 389.045 204.205 388.681C202.91 387.516 199.42 384.187 196.185 379.401C192.38 373.773 180.529 353.497 179.086 351.023L163.999 359.927Z" fill="#3B3348"/>
<path d="M196.591 369.312C193.534 377.546 192.432 393.335 193.025 399.614C191.132 396.772 184.557 392.165 172.991 394.861L180.118 349.024C160.367 346.613 165.694 347.264 155.077 345.967C152.028 341.566 143.192 328.815 140.135 324.402C151.235 317.86 149.126 319.104 151.935 317.445C156.179 320.582 191.129 326.277 200.58 331.449C209.792 336.496 199.643 361.078 196.591 369.312Z" fill="#637690"/>
<path d="M193.413 400.707L192.789 399.771C190.947 397.007 184.452 392.479 173.055 395.137L172.647 395.232L172.711 394.817L179.793 349.269L154.917 346.231L154.844 346.127L139.729 324.312L143.633 322.011C149.542 318.529 149.542 318.529 150.872 317.743L151.953 317.105L152.103 317.216C154.009 318.624 162.685 320.662 171.872 322.82C182.984 325.43 195.578 328.388 200.716 331.199C209.493 336.007 201.46 357.232 197.599 367.432C197.322 368.164 197.071 368.827 196.855 369.408C193.895 377.381 192.68 392.967 193.306 399.585L193.413 400.707ZM179.664 393.767C186.432 393.767 190.745 396.491 192.67 398.691C192.226 391.578 193.473 376.896 196.326 369.214C196.542 368.631 196.793 367.967 197.071 367.234C200.578 357.968 208.79 336.269 200.445 331.698C195.374 328.923 182.82 325.975 171.744 323.373C162.331 321.162 154.172 319.246 151.924 317.781L151.162 318.232C149.831 319.018 149.831 319.018 143.922 322.5L140.543 324.491L155.238 345.701L180.443 348.778L173.336 394.492C175.64 393.984 177.751 393.767 179.664 393.767Z" fill="#3B3348"/>
<path opacity="0.5" d="M183.45 394.173L183.131 394.283C180.408 393.864 177.057 393.914 172.992 394.861L180.119 349.024L163.407 346.984C162.799 346.686 148.993 339.931 139.464 335.264L140.252 318.682L149.064 317.111C154.423 330.891 174.249 342.614 191.305 347.573C184.669 371.948 179.743 385.128 183.45 394.173Z" fill="#3B3348"/>
<path d="M184.868 348.848C184.812 348.848 184.756 348.848 184.701 348.847C184.563 348.845 184.454 348.731 184.455 348.594C184.457 348.458 184.568 348.348 184.704 348.348C186.928 348.395 190.462 347.717 192.89 346.18C193.006 346.108 193.161 346.141 193.234 346.258C193.308 346.374 193.273 346.529 193.157 346.602C190.703 348.155 187.183 348.848 184.868 348.848Z" fill="#3B3348"/>
<path d="M223.456 295.924C225.96 291.764 234.534 289.6 239.585 295.881L223.456 295.924Z" fill="#9C9FA0"/>
<path d="M213.757 291.934C219.232 288.496 230.692 287.223 234.067 288.56C237.441 289.897 240.115 292.889 238.906 293.781C237.696 294.672 233.94 292.317 231.712 293.208C225.577 295.662 223.798 298.596 213.249 298.238L213.757 291.934Z" fill="#F99889"/>
<path d="M215.662 300.47C209.999 301.874 188.619 307.117 182.158 307.85C175.737 308.577 161.784 295.843 157.117 291.298C156.172 294.126 155.163 296.637 153.382 299.193C151.017 302.581 149.404 310.717 150.529 312.544C151.511 314.005 154.16 316.225 154.484 317.446C154.823 318.718 152.703 322.792 143.278 325.51C131.412 305.15 135.291 311.807 125.963 295.796C145.451 267.13 132.258 286.541 147.607 263.963C156.49 264.092 181.83 293.678 184.344 293.228C213.54 288.003 212.021 287.944 212.897 288.919C213.853 289.982 215.57 292.342 216.485 296.334C216.92 298.179 217.39 300.041 215.662 300.47Z" fill="#3F6763"/>
<path d="M143.144 325.842L125.627 295.784L125.728 295.636C136.158 280.293 137.227 278.723 138.32 277.115L147.458 263.676L147.61 263.678C153.333 263.761 165.528 275.613 174.433 284.266C178.896 288.603 183.494 293.101 184.294 292.948C190.957 291.756 196.019 290.832 199.876 290.129C212.37 287.85 212.373 287.848 213.014 288.62L213.108 288.729C214.055 289.784 215.767 292.123 216.709 296.05L216.789 296.372C217.215 298.193 217.697 300.256 215.729 300.744C209.484 302.293 188.607 307.403 182.189 308.131C175.423 308.902 160.878 295.324 157.242 291.812C156.302 294.572 155.299 296.935 153.614 299.353C151.245 302.747 149.749 310.633 150.755 312.368C151.154 312.963 151.837 313.69 152.497 314.393C153.551 315.517 154.547 316.578 154.758 317.371C155.155 318.86 152.836 323.046 143.357 325.78L143.144 325.842ZM126.297 295.807L143.411 325.175C152.49 322.507 154.508 318.636 154.21 317.518C154.036 316.862 152.999 315.757 152.084 314.782C151.426 314.08 150.8 313.414 150.386 312.831H150.251L150.247 312.621C149.1 310.51 150.825 302.36 153.149 299.03C154.881 296.545 155.881 294.105 156.848 291.208L156.991 290.78L157.314 291.095C165.496 299.064 176.899 308.158 182.125 307.569C188.509 306.845 209.356 301.742 215.593 300.196C216.897 299.872 216.73 298.629 216.265 296.619L216.209 296.399C215.307 292.464 213.615 290.143 212.687 289.11C212.648 289.066 212.613 289.025 212.58 288.985C212.158 288.479 211.924 288.511 199.978 290.689C196.121 291.393 191.057 292.316 184.393 293.509C183.374 293.693 180.309 290.771 174.038 284.676C165.282 276.166 153.319 264.54 147.753 264.253L138.788 277.437C137.699 279.037 136.633 280.603 126.297 295.807Z" fill="#2E5151"/>
<path opacity="0.5" d="M216.889 299.997C216.889 299.997 189.469 306.874 181.999 307.722C176.713 308.32 166.379 299.792 160.778 294.745C160.324 294.179 155.193 289.317 154.325 289.643C152.29 290.406 148.849 298.68 147.832 303.138C147.049 306.579 147.852 309.866 150.37 312.414C151.352 313.875 154.001 316.095 154.325 317.316C154.664 318.588 152.545 322.662 143.119 325.38C131.742 305.859 133.666 309.611 131.788 304.409C132.863 298.075 135.444 282.874 136.501 276.65C143.037 272.293 138.537 275.293 149.488 267.992C153.433 270.411 159.801 282.889 163.367 288.11C166.933 293.331 177.371 304.154 181.829 304.408C185.774 304.632 210.63 297.79 216.325 296.204C216.595 297.339 216.789 298.596 216.889 299.997Z" fill="#2E5151"/>
<path d="M181.001 296.927C180.965 296.927 180.927 296.919 180.893 296.902C180.769 296.842 180.717 296.693 180.777 296.569C181.187 295.717 182.536 293.612 182.767 293.382C182.865 293.286 183.021 293.286 183.118 293.382C183.215 293.478 183.216 293.636 183.12 293.734C182.967 293.891 181.646 295.915 181.227 296.786C181.183 296.875 181.094 296.927 181.001 296.927Z" fill="#2E5151"/>
<path d="M184.216 296.799C184.11 296.799 184.012 296.731 183.978 296.625C183.973 296.607 183.41 294.831 183.109 294.321C183.039 294.203 183.079 294.05 183.198 293.98C183.315 293.911 183.47 293.95 183.539 294.069C183.868 294.628 184.429 296.4 184.453 296.475C184.495 296.607 184.422 296.747 184.29 296.788C184.267 296.796 184.241 296.799 184.216 296.799Z" fill="#2E5151"/>
<path d="M157.116 291.547C157.047 291.547 156.979 291.519 156.929 291.463C156.581 291.071 153.515 287.619 153.258 287.234C153.182 287.119 153.213 286.965 153.327 286.888C153.441 286.812 153.597 286.843 153.673 286.957C153.853 287.226 155.941 289.601 157.302 291.132C157.393 291.235 157.384 291.393 157.281 291.484C157.234 291.526 157.175 291.547 157.116 291.547Z" fill="#2E5151"/>
<path d="M151.513 314.721C151.479 314.721 151.444 314.714 151.411 314.699C149.009 313.623 144.559 312.942 144.515 312.936C144.379 312.915 144.285 312.788 144.305 312.652C144.326 312.515 144.458 312.427 144.589 312.442C144.774 312.47 149.15 313.139 151.614 314.244C151.74 314.3 151.796 314.448 151.74 314.573C151.699 314.667 151.608 314.721 151.513 314.721Z" fill="#2E5151"/>
<path d="M150.983 231.451C151.686 240.171 158.63 240.725 152.256 242.975C152.256 242.975 153.275 250.806 146.844 252.78L140.668 241.097L145.061 233.043L150.983 231.451Z" fill="#F99889"/>
<path d="M152.958 265.364C151.936 272.835 144.639 274.53 142.475 283.617C140.311 292.699 146.844 293.631 146.121 302.164C145.403 310.692 137.169 313.285 137.169 313.285C137.096 313.23 98.329 284.256 98.329 284.165C98.459 284.165 96.953 280.709 105.017 276.465C113.117 272.41 99.605 263.238 106.224 254.881C112.019 247.56 117.136 258.108 120.363 236.503C123.585 214.899 138.656 215.322 143.748 219.013C158.778 219.735 155.886 230.961 145.783 242.188C140.096 248.512 153.975 257.893 152.958 265.364Z" fill="#4D3930"/>
<path d="M152.958 265.364C151.936 272.835 144.639 274.53 142.475 283.617C140.311 292.699 146.844 293.631 146.121 302.164C145.403 310.692 137.169 313.285 137.169 313.285C137.16 313.278 137.108 313.245 137.104 313.24L123.753 283.063C116.523 268.952 131.94 264.64 138.101 254.287C142.345 247.155 139.797 240.363 141.243 236.204C142.684 232.045 148.544 235.865 151.003 229.247C152.948 224.02 150.714 221.278 149.686 220.355C158.954 224.266 152.523 234.696 145.781 242.189C140.096 248.512 153.975 257.893 152.958 265.364Z" fill="#44322B"/>
<path d="M116.457 284.166L104.104 288.535C100.628 285.922 98.329 284.186 98.329 284.166C98.459 284.166 96.953 280.71 105.017 276.466C105.067 276.441 105.117 276.411 105.167 276.381C110.493 275.543 113.535 273.289 111.7 268.631C107.175 257.119 124.26 257.803 123.584 246.647C123.584 246.647 126.641 255.265 117.983 259.973C108.422 265.175 125.696 277.273 116.457 284.166Z" fill="#44322B"/>
<path d="M148.457 239.94C147.32 235.218 140.488 237.726 145.868 246.094L148.457 239.94Z" fill="#F99889"/>
<path d="M144.552 244.524C144.552 244.524 144.536 244.678 144.506 244.966C144.476 245.254 144.417 245.677 144.433 246.215C144.412 246.75 144.472 247.403 144.56 248.145C144.666 248.886 144.825 249.715 145.037 250.612C145.249 251.509 145.518 252.473 145.811 253.493C146.099 254.514 146.424 255.588 146.67 256.73C146.923 257.867 147.146 259.066 147.147 260.315C147.145 261.554 146.96 262.855 146.359 264.006C145.776 265.143 144.988 266.128 144.196 267.059C143.398 267.989 142.574 268.859 141.789 269.708C140.215 271.399 138.767 272.997 137.801 274.561C137.317 275.339 136.939 276.092 136.682 276.79C136.419 277.487 136.288 278.129 136.234 278.662C136.201 278.929 136.187 279.168 136.189 279.377C136.182 279.586 136.183 279.764 136.199 279.908C136.22 280.197 136.232 280.351 136.232 280.351C136.232 280.351 136.21 280.198 136.168 279.911C136.141 279.768 136.128 279.589 136.121 279.378C136.102 279.167 136.103 278.925 136.123 278.653C136.15 278.11 136.249 277.449 136.481 276.723C136.705 275.996 137.052 275.203 137.527 274.397C138.471 272.778 139.862 271.085 141.425 269.377C142.203 268.518 143.015 267.642 143.791 266.718C144.563 265.795 145.317 264.822 145.852 263.752C146.118 263.233 146.341 262.667 146.438 262.083L146.534 261.65L146.573 261.206C146.598 260.91 146.637 260.617 146.617 260.319C146.63 259.132 146.427 257.959 146.188 256.837C145.701 254.592 145.092 252.508 144.724 250.684C144.531 249.773 144.415 248.925 144.348 248.171C144.298 247.415 144.271 246.756 144.32 246.211C144.329 245.665 144.425 245.251 144.472 244.965C144.526 244.676 144.552 244.524 144.552 244.524Z" fill="#382823"/>
<path d="M111.361 279.696C111.243 279.696 111.133 279.622 111.093 279.505C109.771 275.645 111.588 273.427 113.344 271.282C114.507 269.862 115.605 268.521 115.833 266.729C116.098 264.645 114.964 262.95 113.652 260.987C112.127 258.707 110.399 256.123 110.399 252.25C110.399 247.854 114.099 244.786 117.071 242.322C118.957 240.758 120.585 239.408 120.585 238.244C120.585 238.088 120.712 237.961 120.868 237.961C121.024 237.961 121.151 238.088 121.151 238.244C121.151 239.674 119.51 241.035 117.432 242.758C114.551 245.147 110.965 248.12 110.965 252.25C110.965 255.951 112.642 258.459 114.122 260.672C115.441 262.644 116.687 264.507 116.395 266.801C116.146 268.755 114.944 270.222 113.782 271.642C112.048 273.76 110.409 275.76 111.628 279.322C111.679 279.47 111.6 279.631 111.452 279.682C111.422 279.691 111.391 279.696 111.361 279.696Z" fill="#382823"/>
<path d="M133.092 298.202C133.026 298.202 132.959 298.179 132.905 298.132C132.788 298.029 132.776 297.85 132.879 297.732C132.903 297.704 135.257 294.927 134.847 288.94C134.714 286.999 133.064 285.093 131.316 283.075C127.708 278.909 123.217 273.725 130.332 265.56C140.179 254.26 138.961 250.251 137.274 244.703L137.065 244.011C137.02 243.861 137.105 243.703 137.255 243.659C137.404 243.614 137.563 243.699 137.608 243.849L137.817 244.538C139.556 250.261 140.812 254.396 130.76 265.932C123.967 273.726 128.099 278.497 131.745 282.705C133.556 284.796 135.267 286.771 135.413 288.902C135.84 295.144 133.409 297.988 133.306 298.106C133.249 298.169 133.171 298.202 133.092 298.202Z" fill="#382823"/>
<path d="M184.706 348.595C170.358 364.639 140.31 363.028 126.725 362.01C113.145 360.993 108.731 357.512 103.889 346.475C99.051 335.438 92.942 308.104 94.638 293.506C96.665 276.051 114.51 276.877 121.858 280.769C135.822 288.138 136.38 302.977 146.42 327.289C154.587 347.067 169.614 347.822 180.093 348.41C182.796 348.56 184.706 348.595 184.706 348.595Z" fill="#FEAE65"/>
<path d="M140.551 362.895C134.738 362.895 129.804 362.525 126.704 362.294C113.411 361.298 108.666 358.069 103.629 346.59C98.713 335.375 92.653 308.13 94.356 293.474C95.076 287.272 97.926 282.696 102.596 280.24C108.745 277.006 117.176 277.969 121.99 280.519C132.118 285.864 135.233 295.012 139.947 308.86C141.78 314.241 143.856 320.34 146.681 327.182C154.743 346.706 169.321 347.523 179.965 348.12L180.108 348.128C182.774 348.275 184.691 348.311 184.71 348.312L185.328 348.323L184.916 348.784C174.282 360.676 154.788 362.895 140.551 362.895ZM111.698 278.747C108.649 278.747 105.532 279.336 102.86 280.741C98.298 283.14 95.627 287.446 94.919 293.539C93.227 308.107 99.257 335.203 104.148 346.361C109.076 357.592 113.722 360.752 126.746 361.728C137.272 362.517 169.105 364.902 184.077 348.863C183.3 348.841 181.853 348.792 180.077 348.694L179.934 348.686C169.748 348.114 154.356 347.251 146.158 327.398C143.326 320.54 141.246 314.432 139.411 309.043C134.74 295.324 131.655 286.26 121.725 281.021C119.135 279.648 115.469 278.747 111.698 278.747Z" fill="#D16A4B"/>
<path d="M184.706 348.595C170.358 364.639 140.31 363.028 126.725 362.01C113.145 360.993 108.731 357.512 103.889 346.475C99.051 335.438 92.942 308.104 94.638 293.506C96.665 276.051 114.51 276.877 121.858 280.769C120.262 280.809 117.993 281.382 115.519 283.597C110.811 287.806 118.985 340.571 124.93 348.62C130.875 356.669 148.09 357.906 157.377 356.3C164.923 354.993 176.144 350.171 180.094 348.41C182.796 348.56 184.706 348.595 184.706 348.595Z" fill="#E0DFEA"/>
</g>
<path d="M302.333 315.58C382.648 315.58 378.104 316.079 378.42 314.48C386.781 272.23 387.378 272.636 385.04 272.636C304.725 272.636 309.269 272.136 308.953 273.735C300.592 315.987 299.995 315.58 302.333 315.58Z" fill="white"/>
<path d="M362.437 316.181C358.378 316.181 353.29 316.171 346.911 316.158C336.277 316.137 321.714 316.108 302.334 316.108H302.269C301.813 316.108 301.309 316.109 300.96 315.683C300.162 314.708 300.661 312.239 303.915 296.179C305.091 290.374 306.554 283.148 308.437 273.634C308.448 273.578 308.449 273.526 308.45 273.478C308.49 272.426 309.118 272.236 312.925 272.126C316.868 272.011 324.751 272.027 340.463 272.06C351.097 272.081 365.661 272.11 385.04 272.11H385.105C385.552 272.107 386.064 272.109 386.414 272.535C387.212 273.51 386.713 275.979 383.459 292.039C382.283 297.844 380.82 305.07 378.937 314.584C378.926 314.64 378.925 314.692 378.924 314.74C378.884 315.792 378.257 315.982 374.449 316.092C372.107 316.159 368.373 316.181 362.437 316.181ZM302.333 315.053C321.714 315.053 336.278 315.082 346.913 315.104C370.327 315.153 376.993 315.165 377.87 314.738C377.871 314.725 377.871 314.712 377.871 314.7C377.875 314.6 377.88 314.494 377.903 314.379C379.786 304.863 381.25 297.637 382.426 291.83C385.026 278.996 386.102 273.684 385.597 273.201C385.543 273.163 385.283 273.159 385.107 273.165H385.04C365.659 273.165 351.095 273.136 340.46 273.114C317.044 273.066 310.38 273.054 309.504 273.481C309.503 273.493 309.503 273.506 309.503 273.519C309.499 273.618 309.494 273.725 309.471 273.839C307.588 283.355 306.124 290.581 304.948 296.388C302.348 309.222 301.272 314.533 301.777 315.016C301.831 315.054 302.092 315.06 302.267 315.053H302.333Z" fill="#EEE4D9"/>
<path opacity="0.5" d="M372.327 287.725C376.148 287.725 377.803 288.074 377.803 286.463C377.803 282.642 378.152 280.987 376.541 280.987C372.72 280.987 371.065 280.638 371.065 282.249C371.065 286.069 370.716 287.725 372.327 287.725Z" fill="#BEC0C2"/>
<path d="M335.724 287.725C362.674 287.725 362.725 288.243 362.725 286.463C362.725 282.642 363.074 280.987 361.463 280.987C334.513 280.987 334.462 280.469 334.462 282.249V286.463C334.462 287.159 335.027 287.725 335.724 287.725Z" fill="#D0A0FF"/>
<path d="M314.552 287.725C325.11 287.725 326.291 288.146 326.291 286.463C326.291 282.642 326.64 280.987 325.029 280.987C314.471 280.987 313.29 280.566 313.29 282.249C313.29 286.069 312.941 287.725 314.552 287.725Z" fill="#FFEC40" fill-opacity="0.4"/>
<path opacity="0.5" d="M370.306 297.065C374.127 297.065 375.782 297.414 375.782 295.803C375.782 291.982 376.131 290.327 374.52 290.327C370.699 290.327 369.044 289.978 369.044 291.589C369.044 295.41 368.695 297.065 370.306 297.065Z" fill="#BEC0C2"/>
<path d="M333.703 297.065C360.653 297.065 360.704 297.583 360.704 295.803C360.704 291.982 361.053 290.327 359.442 290.327C332.492 290.327 332.441 289.809 332.441 291.589C332.441 295.41 332.092 297.065 333.703 297.065Z" fill="#D0A0FF"/>
<path d="M312.532 297.065C323.09 297.065 324.271 297.486 324.271 295.803C324.271 291.982 324.62 290.327 323.009 290.327C312.451 290.327 311.27 289.906 311.27 291.589C311.27 295.41 310.921 297.065 312.532 297.065Z" fill="#FFEC40" fill-opacity="0.4"/>
<path opacity="0.5" d="M368.607 307.232C372.428 307.232 374.083 307.581 374.083 305.97C374.083 302.149 374.432 300.494 372.821 300.494C369 300.494 367.345 300.145 367.345 301.756C367.344 305.576 366.996 307.232 368.607 307.232Z" fill="#BEC0C2"/>
<path d="M332.004 307.232C358.954 307.232 359.005 307.75 359.005 305.97C359.005 302.149 359.354 300.494 357.743 300.494C330.793 300.494 330.742 299.976 330.742 301.756C330.741 305.576 330.393 307.232 332.004 307.232Z" fill="#D0A0FF"/>
<path d="M310.832 307.232C321.39 307.232 322.571 307.653 322.571 305.97C322.571 302.149 322.92 300.494 321.309 300.494C310.751 300.494 309.57 300.073 309.57 301.756C309.57 305.576 309.221 307.232 310.832 307.232Z" fill="#FFEC40" fill-opacity="0.4"/>
</svg>
