<svg width="35" height="35" viewBox="0 0 35 35" fill="none" xmlns="http://www.w3.org/2000/svg">
<circle cx="14.5833" cy="11.6667" r="7.29167" fill="#340068"/>
<path d="M27.7083 14.5833L27.7083 23.3333" stroke="#340068" stroke-width="2" stroke-linecap="round"/>
<path d="M32.0833 18.9583L23.3333 18.9583" stroke="#340068" stroke-width="2" stroke-linecap="round"/>
<path d="M25.1888 29.6815C25.7598 29.5522 26.1019 28.9593 25.8599 28.4262C25.0646 26.6746 23.7101 25.135 21.9361 23.9845C19.8267 22.6165 17.2422 21.875 14.5833 21.875C11.9245 21.875 9.33996 22.6165 7.23057 23.9845C5.45657 25.135 4.10201 26.6745 3.30678 28.4262C3.06474 28.9593 3.40681 29.5522 3.97784 29.6815L5.74838 30.0825C11.5647 31.3997 17.6019 31.3997 23.4183 30.0825L25.1888 29.6815Z" fill="#340068"/>
</svg>
