<svg width="24" height="27" viewBox="0 0 24 27" fill="none" xmlns="http://www.w3.org/2000/svg">
<path fill-rule="evenodd" clip-rule="evenodd" d="M24 15C24 21.6274 18.6274 27 12 27C5.37258 27 0 21.6274 0 15C0 8.37258 5.37258 3 12 3C18.6274 3 24 8.37258 24 15ZM5.25247 20.3333L5.95958 19.6262L10.5858 15L5.95954 10.3738L5.25243 9.66667L6.66665 8.25245L7.37375 8.95956L12 13.5858L16.6262 8.95956L17.3334 8.25245L18.7476 9.66667L18.0405 10.3738L13.4142 15L18.0404 19.6262L18.7475 20.3333L17.3333 21.7475L16.6262 21.0404L12 16.4142L7.37379 21.0404L6.66669 21.7475L5.25247 20.3333Z" fill="#E83151"/>
</svg>
