<svg width="26" height="28" viewBox="0 0 26 28" fill="none" xmlns="http://www.w3.org/2000/svg">
<path fill-rule="evenodd" clip-rule="evenodd" d="M3 10.4C3 8.15979 3 7.03969 3.43597 6.18404C3.81947 5.43139 4.43139 4.81947 5.18404 4.43597C6.03969 4 7.15979 4 9.4 4H19.6C21.8402 4 22.9603 4 23.816 4.43597C24.5686 4.81947 25.1805 5.43139 25.564 6.18404C26 7.03969 26 8.15979 26 10.4V16.6853C26 18.9255 26 20.0456 25.564 20.9013C25.1805 21.6539 24.5686 22.2658 23.816 22.6493C22.9603 23.0853 21.8402 23.0853 19.6 23.0853L8.5444 23.0853C8.26796 23.0853 8.00385 23.1998 7.8148 23.4014L4.7296 26.693C4.10962 27.3544 3 26.9157 3 26.0091V23.0853V16.2691V10.4ZM10.6667 9.81619C10.1144 9.81619 9.66669 10.2639 9.66669 10.8162C9.66669 11.3685 10.1144 11.8162 10.6667 11.8162H18.3334C18.8856 11.8162 19.3334 11.3685 19.3334 10.8162C19.3334 10.2639 18.8856 9.81619 18.3334 9.81619H10.6667ZM10.6667 15.2691C10.1144 15.2691 9.66669 15.7169 9.66669 16.2691C9.66669 16.8214 10.1144 17.2691 10.6667 17.2691H14.5C15.0523 17.2691 15.5 16.8214 15.5 16.2691C15.5 15.7169 15.0523 15.2691 14.5 15.2691H10.6667Z" fill="#5C00B8"/>
</svg>
