<svg width="40" height="40" viewBox="0 0 40 40" fill="none" xmlns="http://www.w3.org/2000/svg">
<path d="M32.2098 9.62955C33.3333 11.311 33.3333 13.6518 33.3333 18.3334C33.3333 23.0149 33.3333 25.3557 32.2098 27.0372C31.7234 27.7651 31.0984 28.3901 30.3705 28.8765C28.9015 29.858 26.9295 29.9821 23.3333 29.9978V30L21.4907 33.6853C20.8765 34.9137 19.1235 34.9137 18.5093 33.6853L16.6667 30V29.9978C13.0705 29.9821 11.0984 29.858 9.62952 28.8765C8.90159 28.3901 8.27658 27.7651 7.79019 27.0372C6.66666 25.3557 6.66666 23.0149 6.66666 18.3334C6.66666 13.6518 6.66666 11.311 7.79019 9.62955C8.27658 8.90162 8.90159 8.27661 9.62952 7.79022C11.311 6.66669 13.6518 6.66669 18.3333 6.66669H21.6667C26.3482 6.66669 28.689 6.66669 30.3705 7.79022C31.0984 8.27661 31.7234 8.90162 32.2098 9.62955Z" stroke="#340068" stroke-width="3" stroke-linecap="round" stroke-linejoin="round"/>
<path d="M15 15L25 15" stroke="#340068" stroke-width="3" stroke-linecap="round" stroke-linejoin="round"/>
<path d="M15 21.6667H20" stroke="#340068" stroke-width="3" stroke-linecap="round" stroke-linejoin="round"/>
</svg>
